<?xml version="1.0" encoding="utf-8"?>
<!-- Generator: Adobe Illustrator 17.0.0, SVG Export Plug-In . SVG Version: 6.00 Build 0)  -->
<!DOCTYPE svg PUBLIC "-//W3C//DTD SVG 1.1//EN" "http://www.w3.org/Graphics/SVG/1.1/DTD/svg11.dtd">
<svg version="1.1" id="Layer_1" xmlns="http://www.w3.org/2000/svg" xmlns:xlink="http://www.w3.org/1999/xlink" x="0px" y="0px"
	 viewBox="0 0 750 450" enable-background="new 0 0 750 450" xml:space="preserve">
<path fill="#E8E6D4" d="M375,86c76.771,0,139,62.233,139,139c0,76.771-62.229,139-139,139c-76.767,0-139-62.229-139-139
	C236,148.233,298.233,86,375,86z"/>
<path fill="#9A8E51" d="M483.109,98.658c0.02,0.072,0.039,0.131,0.039,0.208c0.465,3.098-0.757,6.254-1.552,9.216
	c-1.261,4.833-3.171,9.264-4.8,13.967c-2.996,8.59-5.721,17.297-9.531,25.558c-1.047,2.284-2.172,4.509-3.393,6.69
	c-0.989,1.74-1.998,3.457-2.986,5.183c-2.24,3.96-4.461,7.994-7.205,11.649c-2.743,3.641-6.225,6.612-9.298,9.938
	c-4.731,5.139-9.929,8.445-16.047,11.693c-2.957,1.571-5.788,3.375-8.571,5.211c-2.53,1.658-5.245,3.578-8.426,3.428
	c-1.938-0.078-0.484-13.026-0.416-14.573c0.3-6.03-0.127-12.4,1.502-18.262c1.135-4.16,1.465-8.586,3.395-12.518
	c1.687-3.418,3.383-6.84,5.643-9.929c2.133-2.899,4.771-5.391,7.407-7.834c7.583-7,16.104-12.881,24.144-19.334
	c2.404-1.943,4.818-3.883,7.349-5.647c6.535-4.576,11.878-11.267,18.907-15.111C480.152,97.728,482.663,97.092,483.109,98.658z"/>
<path fill="#9A8E51" d="M374.016,147.041c2.008,6.176,4.402,12.25,5.77,18.625c1.372,6.462,1.614,13.235,1.809,19.818
	c0.125,3.903,0.154,7.815,0.01,11.718c-0.127,3.897-0.67,7.762-1.387,11.596c-0.364,1.896-0.781,3.791-1.217,5.667
	c-0.268,1.163-0.345,2.332-0.771,3.466c-0.936,2.521-1.439,5.459-2.346,8.009c-1.387,3.946-3.045,7.688-5.052,11.383
	c-2.114,3.879-4.47,7.476-7.17,10.966c-3.457,4.441-6.196,9.047-9.124,13.808c-0.747,1.202-2.71,4.673-4.436,4.334
	c-1.003-0.175-1.193-1.891-1.493-2.638c-1.188-2.938-2.41-5.865-3.622-8.813c-1.173-2.87-2.69-5.575-3.883-8.454
	c-1.469-3.607-2.473-7.33-3.544-11.083c-0.824-2.821-1.639-5.677-2.114-8.576c-1.013-5.977-0.218-12.866,1.411-18.674
	c1.033-3.694,2.521-7.238,4.009-10.753c4.009-9.434,8.479-18.577,13.036-27.75c2.177-4.382,4.101-8.876,6.375-13.215
	c2.201-4.184,4.625-8.251,6.763-12.464c0.722-1.445,1.726-3.869,3.689-3.83c1.741,0.039,2.138,2.235,2.405,3.554
	C373.361,144.869,373.672,145.95,374.016,147.041z"/>
<path fill="#9A8E51" d="M356.079,283.786c8.208,0.407,16.381,1.503,24.564,2.386c5.091,0.543,10.22,0.514,15.32,0.581
	c1.803,0.029,10.927-1.027,10.742,1.959c-0.115,2.133-3.451,3.946-5.021,4.887c-2.705,1.6-5.644,2.841-8.504,4.218
	c-3.83,1.822-7.669,3.655-11.519,5.478c-4.319,2.017-8.629,4.054-12.987,6.002c-2.438,1.086-4.892,2.152-7.354,3.161
	c-2.085,0.892-4.198,1.688-6.355,2.385c-8.983,2.919-18.098,3.394-27.372,1.542c-8.081-1.591-16.332-3.423-23.444-7.737
	c-1.318-0.805-2.676-1.522-4.019-2.26c-1.12-0.601-2.672-1.114-3.524-2.113c-1.241-1.435,0.228-2.908,1.498-3.598
	c2.036-1.124,3.941-2.424,5.919-3.645c4.179-2.58,8.271-5.285,12.59-7.65c2.453-1.338,5.032-2.482,7.675-3.394
	c4.765-1.648,9.72-2.734,14.762-2.89c5.047-0.165,10.089,0.427,15.121,0.611C354.794,283.729,355.429,283.747,356.079,283.786z"/>
<path fill="#9A8E51" d="M487.259,194.759c-1.415,6.462-6.477,11.199-11.131,15.538c-5.148,4.814-9.715,10.118-14.68,15.091
	c-5.42,5.411-10.675,10.956-16.958,15.388c-5.691,4.023-11.975,7.204-18.412,9.87c-3.685,1.522-7.408,2.909-11.17,4.218
	c-7.35,2.579-14.214,4.693-21.971,5.711c-3.82,0.504-7.621,1.164-11.422,1.658c-2.385,0.32-5.948,0.988-7.548-1.377
	c-2.691-4.004,2.87-9.172,5.342-11.752c4.204-4.421,8.373-8.891,12.688-13.205c8.745-8.756,19.188-17.996,29.931-24.221
	c6.002-3.476,12.566-5.798,19.062-8.135c13.061-4.692,26.314-9.23,39.928-12.042c1.668-0.339,4.169-0.94,5.623,0.301
	C487.424,192.543,487.501,193.634,487.259,194.759z"/>
</svg>
