<?xml version="1.0" encoding="utf-8"?>
<!-- Generator: Adobe Illustrator 17.0.0, SVG Export Plug-In . SVG Version: 6.00 Build 0)  -->
<!DOCTYPE svg PUBLIC "-//W3C//DTD SVG 1.1//EN" "http://www.w3.org/Graphics/SVG/1.1/DTD/svg11.dtd">
<svg version="1.1" id="Layer_1" xmlns="http://www.w3.org/2000/svg" xmlns:xlink="http://www.w3.org/1999/xlink" x="0px" y="0px"
	 viewBox="-225 -100 750 500" enable-background="new -225 -100 750 500" xml:space="preserve">
<polygon fill="#ED1C24" points="182.582,-22.446 275,-22.446 275,198.809 "/>
<polygon fill="#ED1C24" points="117.471,-22.446 25,-22.446 25,198.809 "/>
<polygon fill="#ED1C24" points="150.037,59.08 208.914,198.797 170.337,198.797 152.725,154.294 109.617,154.294 "/>
<path d="M58.548,290.958l-2.929-17.35c-0.835-5.001-1.903-12.816-2.717-18.23h-0.318c-0.856,5.455-2.051,13.491-2.929,18.272
	l-3.152,17.307H58.548z M44.931,302.263l-3.806,19.254H27.062l17.541-80.104h17.234l15.934,80.104H63.636l-3.722-19.254H44.931z"/>
<path d="M109.777,285.736c0-1.068,0-2.316-0.212-3.459c-0.56-3.955-2.664-7.517-6.048-7.517c-5.805,0-7.94,8.363-7.94,18.144
	c0,11.239,3.044,17.636,7.739,17.636c2.146,0,4.62-1.1,5.964-5.817c0.327-0.94,0.497-2.198,0.497-3.668V285.736z M124.21,239.287
	v65.618c0,5.201,0.265,11.599,0.477,16.6h-12.466l-0.814-6.673h-0.296c-2.093,4.115-6.65,7.613-12.096,7.613
	c-11.937,0-17.858-13.173-17.858-29.807c0-20.268,8.828-30.123,18.45-30.123c5.033,0,8.29,2.464,9.929,6.029h0.243v-29.257H124.21z"
	/>
<path d="M154.269,311.376c5.509,0,6.873-10.383,6.873-18.98c0-8.173-1.364-18.822-7.115-18.822c-6.091,0-7.371,10.649-7.371,18.822
	c0,9.865,1.607,18.98,7.485,18.98H154.269z M153.995,322.446c-13.301,0-21.644-10.679-21.644-29.795
	c0-20.862,10.71-30.135,21.982-30.135c13.122,0,21.347,11.199,21.347,29.797c0,23.896-12.888,30.133-21.569,30.133H153.995z"/>
<path d="M198.181,300.781c0,1.448,0.265,2.803,0.572,3.71c1.448,4.855,3.902,6.049,5.867,6.049c5.583,0,7.836-7.075,7.836-18.388
	c0-10.299-2.38-17.392-7.9-17.392c-2.738,0-5.043,2.972-5.836,6.165c-0.276,1.004-0.539,2.568-0.539,3.646V300.781z
	 M183.747,239.287h14.433v30.239h0.232c2.843-4.463,6.629-7.011,12.127-7.011c10.88,0,16.347,12.372,16.347,28.549
	c0,20.44-8.152,31.381-18.716,31.381c-5.033,0-8.385-2.232-11.409-7.886h-0.305l-0.803,6.946h-12.392
	c0.212-4.81,0.485-11.399,0.485-16.6L183.747,239.287L183.747,239.287z"/>
<path d="M261.473,286.951c0.075-8.151-2.316-13.863-6.894-13.863c-5.223,0-7.444,7.647-7.602,13.863H261.473z M246.924,297.156
	c0.17,10.499,5.689,13.915,12.54,13.915c4.345,0,8.067-0.964,10.816-1.998l1.945,10.383c-3.828,1.648-9.739,2.685-15.407,2.685
	c-15.49,0-23.949-10.585-23.949-28.664c0-19.402,9.812-31.055,22.627-31.055c12.381,0,19.243,10.299,19.243,27.11
	c0,3.849-0.159,6.017-0.413,7.707L246.924,297.156z"/>
<polygon fill="#ED1C24" points="182.427,-22.446 274.753,-22.446 274.753,198.591 "/>
<polygon fill="#ED1C24" points="117.379,-22.446 25,-22.446 25,198.591 "/>
<polygon fill="#ED1C24" points="149.914,59 208.733,198.579 170.193,198.579 152.598,154.119 109.534,154.119 "/>
</svg>
