<?xml version="1.0" encoding="utf-8"?>
<!-- Generator: Adobe Illustrator 17.0.0, SVG Export Plug-In . SVG Version: 6.00 Build 0)  -->
<!DOCTYPE svg PUBLIC "-//W3C//DTD SVG 1.1//EN" "http://www.w3.org/Graphics/SVG/1.1/DTD/svg11.dtd">
<svg version="1.1" id="Layer_1" xmlns="http://www.w3.org/2000/svg" xmlns:xlink="http://www.w3.org/1999/xlink" x="0px" y="0px" viewBox="-69 176 750 440" enable-background="new -69 176 750 440" xml:space="preserve">
<g>
	<path fill="#8DCF3F" d="M312.772,234.013l2.784,0.044c56.935,0.834,89.578,48.538,88.582,116.583
		c-1.442,98.595-56.577,164.461-132.954,163.347l-37.5-0.552c-16.131-36.347-26.56-83.72-25.806-135.107
		C209.2,288.064,246.119,233.04,312.772,234.013z"/>
	<g>
		<path fill="#FFFFFF" d="M238.174,424.92c-0.934-0.579-1.684-1.625-1.684-3.012c0-1.969,1.501-3.475,3.474-3.475
			c0.638,0,1.27,0.178,1.73,0.464c2.957,1.853,5.911,2.775,8.406,2.775c2.542,0,3.701-0.922,3.701-2.317v-0.11
			c0-1.918-3.014-2.551-6.425-3.596c-4.346-1.276-9.267-3.307-9.267-9.322v-0.118c0-6.313,5.097-9.849,11.349-9.849
			c3.245,0,6.605,0.87,9.613,2.376c1.27,0.636,2.085,1.792,2.085,3.299c0,1.97-1.562,3.475-3.529,3.475
			c-0.644,0-1.054-0.118-1.625-0.407c-2.487-1.213-4.863-1.97-6.72-1.97c-2.14,0-3.24,0.928-3.24,2.146v0.112
			c0,1.737,2.957,2.551,6.313,3.713c4.346,1.445,9.383,3.534,9.383,9.203v0.119c0,6.892-5.155,10.022-11.87,10.022
			C246.043,428.449,241.94,427.349,238.174,424.92z"/>
		<path fill="#FFFFFF" d="M267.378,389.415c0-2.545,2.151-4.102,4.929-4.102s4.918,1.563,4.918,4.102v0.122
			c0,2.551-2.14,4.167-4.918,4.167s-4.929-1.616-4.929-4.167V389.415z M267.903,400.886c0-2.43,1.968-4.401,4.404-4.401
			c2.43,0,4.404,1.972,4.404,4.401v22.934c0,2.432-1.974,4.401-4.404,4.401c-2.436,0-4.404-1.969-4.404-4.401V400.886z"/>
		<path fill="#FFFFFF" d="M285.673,419.07v-14.706h-0.285c-2.085,0-3.763-1.679-3.763-3.766c0-2.08,1.679-3.762,3.763-3.762h0.285
			v-3.875c0-2.437,1.972-4.404,4.404-4.404c2.435,0,4.403,1.966,4.403,4.404v3.875h3.878c2.082,0,3.764,1.682,3.764,3.762
			c0,2.087-1.685,3.766-3.764,3.766h-3.878v13.261c0,2.03,0.87,3.013,2.84,3.013c0.295,0,0.868-0.06,1.046-0.06
			c1.967,0,3.647,1.619,3.647,3.647c0,1.567-1.042,2.838-2.258,3.299c-1.625,0.644-3.125,0.869-5.036,0.869
			C289.326,428.398,285.673,426.252,285.673,419.07z"/>
		<path fill="#FFFFFF" d="M321.48,428.564c-9.322,0-16.211-6.544-16.211-16.042v-0.112c0-8.861,6.313-16.161,15.348-16.161
			c10.362,0,14.939,8.511,14.939,14.942c0,2.551-1.801,4.232-4.106,4.232h-17.44c0.876,3.987,3.654,6.077,7.593,6.077
			c2.43,0,4.464-0.751,6.252-2.084c0.638-0.458,1.215-0.694,2.145-0.694c1.96,0,3.417,1.508,3.417,3.475
			c0,1.159-0.521,2.027-1.165,2.604C329.53,427.119,325.995,428.564,321.48,428.564z M327.154,409.918
			c-0.521-3.933-2.838-6.606-6.538-6.606c-3.654,0-6.03,2.604-6.721,6.606H327.154z"/>
		<path fill="#FFFFFF" d="M239.389,439.29c0-2.438,1.967-4.404,4.404-4.404c2.429,0,4.403,1.965,4.403,4.404v34.163
			c0,2.435-1.973,4.404-4.403,4.404c-2.436,0-4.404-1.969-4.404-4.404V439.29z"/>
		<path fill="#FFFFFF" d="M268.977,478.204c-9.322,0-16.212-6.544-16.212-16.039v-0.119c0-8.857,6.313-16.157,15.343-16.157
			c10.364,0,14.944,8.511,14.944,14.942c0,2.551-1.791,4.226-4.107,4.226h-17.431c0.868,3.996,3.64,6.083,7.584,6.083
			c2.436,0,4.465-0.751,6.253-2.081c0.638-0.461,1.211-0.691,2.14-0.691c1.973,0,3.416,1.502,3.416,3.475
			c0,1.153-0.52,2.021-1.153,2.601C277.029,476.753,273.5,478.204,268.977,478.204z M274.653,459.561
			c-0.52-3.936-2.839-6.606-6.544-6.606c-3.647,0-6.016,2.607-6.72,6.606H274.653z"/>
		<path fill="#FFFFFF" d="M285.19,468.593v-0.119c0-6.768,5.155-9.901,12.509-9.901c3.131,0,5.389,0.527,7.59,1.279v-0.523
			c0-3.65-2.258-5.674-6.655-5.674c-2.435,0-4.403,0.343-6.082,0.87c-0.527,0.172-0.87,0.229-1.277,0.229
			c-2.028,0-3.653-1.566-3.653-3.594c0-1.567,0.986-2.896,2.375-3.416c2.778-1.047,5.793-1.623,9.905-1.623
			c4.807,0,8.276,1.277,10.484,3.472c2.317,2.318,3.354,5.737,3.354,9.898v14.128c0,2.376-1.915,4.229-4.285,4.229
			c-2.548,0-4.231-1.797-4.231-3.647v-0.06c-2.134,2.373-5.097,3.936-9.377,3.936C289.997,478.092,285.19,474.729,285.19,468.593z
			 M305.408,466.565v-1.573c-1.508-0.691-3.474-1.153-5.614-1.153c-3.764,0-6.089,1.502-6.089,4.286v0.112
			c0,2.373,1.973,3.768,4.806,3.768C302.624,472.009,305.408,469.752,305.408,466.565z"/>
		<path fill="#FFFFFF" d="M320.457,453.999h-0.343c-2.027,0-3.648-1.563-3.648-3.588c0-2.03,1.62-3.65,3.648-3.65h0.339v-1.972
			c0-3.42,0.876-5.905,2.495-7.525c1.613-1.616,3.987-2.435,7.126-2.435c1.389,0,2.604,0.062,3.588,0.228
			c1.508,0.233,3.021,1.569,3.021,3.535c0,1.969-1.625,3.65-3.6,3.65h-0.744c-2.033,0-3.192,1.04-3.192,3.357v1.213h3.824
			c2.021,0,3.647,1.569,3.647,3.591c0,2.03-1.625,3.596-3.647,3.596h-3.706v19.46c0,2.435-1.97,4.404-4.404,4.404
			c-2.435,0-4.404-1.969-4.404-4.404v-19.46H320.457z"/>
	</g>
</g>
</svg>
