<?xml version="1.0" encoding="utf-8"?>
<!-- Generator: Adobe Illustrator 16.1.0, SVG Export Plug-In . SVG Version: 6.00 Build 0)  -->
<!DOCTYPE svg PUBLIC "-//W3C//DTD SVG 1.1//EN" "http://www.w3.org/Graphics/SVG/1.1/DTD/svg11.dtd">
<svg version="1.1" id="Layer_1" xmlns="http://www.w3.org/2000/svg" xmlns:xlink="http://www.w3.org/1999/xlink" x="0px" y="0px"
	 viewBox="0 -50 750 400" enable-background="new 0 -50 750 400" xml:space="preserve">
<g id="E5zzBq_1_">
</g>
<g>
	<path fill="#6D00CF" d="M115.735,68.941h518.532v162.116H414.796v-26.716h-12.305v26.716H115.735V68.941z M103,243.778h544V56.222
		H103V243.778z"/>
	<path fill="#6D00CF" d="M213.334,116.639H199.39l-24.245,62.366h13.937l6.365-17.295h21.916l6.277,17.295h13.944L213.334,116.639z
		 M199.199,150.287l7.158-19.544l7.084,19.544H199.199z"/>
	<polygon fill="#6D00CF" points="334.407,116.639 334.407,129.024 356.24,129.024 356.24,179.005 369.372,179.005 369.372,129.024
		391.292,129.024 391.292,116.639 	"/>
	<polygon fill="#6D00CF" points="557.861,116.639 542.078,143.233 526.387,116.639 511.125,116.639 535.562,156.111
		535.562,179.005 548.689,179.005 548.689,156.111 573.123,116.639 	"/>
	<g>
		<path fill="#6D00CF" d="M484.982,146.162c-4.062-2.965-9.621-4.326-14.527-5.53c-1.02-0.251-2.016-0.49-2.982-0.745l-0.604-0.155
			c-3.996-1.006-9.475-2.384-9.475-7.156c0-5.106,5.949-6.465,9.461-6.465c3.982,0,8.984,1.193,10.211,6.885l0.035,0.191h12.371
			l-0.008-0.247c-0.416-11.51-8.49-18.112-22.146-18.112c-10.172,0-22.047,4.748-22.047,18.12c0,13.92,12.395,16.897,23.324,19.528
			c1.004,0.245,1.988,0.48,2.951,0.724c5.57,1.455,8.398,4.039,8.398,7.685c0,7.84-10.281,8.236-12.346,8.236
			c-7.225,0-11.148-2.693-12.354-8.472l-0.035-0.188h-12.559l0.012,0.243c0.092,4.946,0.693,7.959,3.877,11.698
			c6.035,7.036,15.605,8.087,20.777,8.087c11.924,0,24.754-6.193,24.754-19.794C492.072,154.917,489.357,149.348,484.982,146.162"/>
		<path fill="#6D00CF" d="M305.05,152.479c4.768-3.478,7.728-9.634,7.728-16.061c0-6.951-3.58-13.409-9.341-16.836
			c-4.883-2.944-9.819-2.944-14.595-2.944h-28.129v62.366h13.218v-30.83l24.532,30.83h16.011l-18.678-22.884
			C299.141,155.544,301.923,154.762,305.05,152.479 M273.931,145.353v-16.961l14.853-0.004c2.953,0,5.566,0.124,7.679,1.651
			c1.993,1.455,3.181,4.01,3.181,6.833c0,5.627-4.017,8.48-11.941,8.48H273.931z"/>
	</g>
</g>
</svg>
