<?xml version="1.0" encoding="utf-8"?>
<!-- Generator: Adobe Illustrator 17.0.0, SVG Export Plug-In . SVG Version: 6.00 Build 0)  -->
<!DOCTYPE svg PUBLIC "-//W3C//DTD SVG 1.1//EN" "http://www.w3.org/Graphics/SVG/1.1/DTD/svg11.dtd">
<svg version="1.1" id="Layer_1" xmlns="http://www.w3.org/2000/svg" xmlns:xlink="http://www.w3.org/1999/xlink" x="0px" y="0px"
	 viewBox="150 -75 450 450" enable-background="new 150 -75 450 450" xml:space="preserve">
<g id="E5zzBq_1_">
</g>
<g>
	<path fill="#364350" d="M453.262,150c0,43.223-35.039,78.262-78.262,78.262S296.738,193.223,296.738,150S331.777,71.738,375,71.738
		V12.5c-75.939,0-137.5,61.561-137.5,137.5c0,75.939,61.561,137.5,137.5,137.5c75.939,0,137.5-61.561,137.5-137.5H453.262z"/>
	<path fill="#28CE67" d="M435.963,100.947l42.015-42.015c-3.725-4.209-7.701-8.185-11.91-11.91l-42.015,42.015
		C428.438,92.569,432.431,96.563,435.963,100.947z"/>
	<path fill="#0BACFF" d="M431.736,24.759c-5.09-2.31-10.327-4.351-15.726-6.036L394.84,74.282
		c5.508,1.439,10.769,3.477,15.734,6.015L431.736,24.759z"/>
	<path fill="#F65B4F" d="M500.241,93.264l-55.538,21.163c2.539,4.964,4.576,10.226,6.015,15.734l55.559-21.171
		C504.592,103.591,502.551,98.354,500.241,93.264z"/>
</g>
</svg>
