<?xml version="1.0" encoding="utf-8"?>
<!-- Generator: Adobe Illustrator 17.0.0, SVG Export Plug-In . SVG Version: 6.00 Build 0)  -->
<!DOCTYPE svg PUBLIC "-//W3C//DTD SVG 1.1//EN" "http://www.w3.org/Graphics/SVG/1.1/DTD/svg11.dtd">
<svg version="1.1" id="Layer_1" xmlns="http://www.w3.org/2000/svg" xmlns:xlink="http://www.w3.org/1999/xlink" x="0px" y="0px" viewBox="0 -50 750 400" enable-background="new 0 -50 750 400" xml:space="preserve">
<g id="E5zzBq_1_">
</g>
<g>
	<path fill="#364350" d="M237.252,181.915h-0.875l-0.795-0.08h-0.875l-0.795-0.079l-0.795-0.08l-0.796-0.159l-0.795-0.079
		l-0.795-0.159l-0.796-0.159l-0.795-0.239l-0.716-0.239l-0.795-0.238l-0.716-0.239l-0.716-0.239l-0.716-0.318l-0.795-0.319
		l-0.795-0.398l-0.716-0.318l-0.716-0.398l-0.716-0.398l-0.716-0.477l-0.636-0.398l-0.721-0.477l-0.64-0.477l-0.64-0.478
		l-0.64-0.557l-0.56-0.557l-0.64-0.477l-0.56-0.637l-0.561-0.557l-0.559-0.557l-0.481-0.637l-0.56-0.636l-0.48-0.637l-0.48-0.637
		l-0.4-0.716l-0.481-0.637l-0.4-0.716l-0.4-0.716l-0.4-0.716l-0.4-0.716l-0.32-0.796l-0.321-0.795l-0.319-0.716l-0.241-0.716
		l-0.24-0.716l-0.24-0.796l-0.24-0.716l-0.161-0.796l-0.16-0.796l-0.16-0.716l-0.159-0.796l-0.081-0.795l-0.08-0.796l-0.081-0.796
		l-0.08-0.795v-0.875v-0.795v-0.159v-0.796v-0.875l0.08-0.795l0.081-0.796l0.08-0.795l0.081-0.795l0.159-0.795l0.16-0.716
		l0.16-0.795l0.161-0.795l0.24-0.716l0.24-0.796l0.24-0.716l0.241-0.716l0.319-0.795l0.321-0.716l0.32-0.795l0.4-0.716l0.4-0.716
		l0.4-0.716l0.4-0.716l0.481-0.716l0.4-0.636l0.48-0.636l0.48-0.636l0.56-0.636l0.481-0.636l0.559-0.636l0.561-0.557l0.56-0.557
		l0.56-0.477l0.559-0.557l0.56-0.477l0.64-0.477l0.56-0.398l0.64-0.477l0.639-0.398l0.636-0.398l0.636-0.398l0.716-0.398
		l0.636-0.398l0.716-0.318l0.716-0.318l0.795-0.398l0.636-0.239l0.716-0.239l0.716-0.318l0.716-0.159l0.716-0.239l0.795-0.159
		l0.716-0.239l0.796-0.159l0.716-0.08l0.795-0.159l0.796-0.079l0.795-0.08l0.795-0.079l0.795-0.08h0.875h0.795h0.875h0.875
		l0.875,0.08l0.875,0.079h0.795l0.795,0.159l0.796,0.08l0.795,0.079l0.716,0.159l0.796,0.159l0.875,0.159l0.716,0.239l0.795,0.239
		l0.796,0.239l0.716,0.239l0.716,0.239l0.716,0.318l0.716,0.318l0.796,0.398l0.716,0.398l0.716,0.398l0.716,0.398l0.636,0.477
		l0.716,0.398l0.636,0.477l0.636,0.557l0.557,0.477l0.636,0.477l0.636,0.557l0.637,0.557l0.557,0.557l-0.557,0.636l-0.477,0.557
		l-0.557,0.636l-0.477,0.557l-0.557,0.636l-0.477,0.557l-0.557,0.636l-0.477,0.557l-0.557,0.636l-0.477,0.557l-0.557,0.636
		l-0.477,0.557l-0.557,0.636l-0.477,0.557l-0.557,0.636l-0.636-0.557l-0.636-0.557l-0.636-0.477l-0.636-0.477l-0.637-0.477
		l-0.636-0.477l-0.636-0.398l-0.636-0.398l-0.636-0.398l-0.636-0.318l-0.636-0.398l-0.636-0.239l-0.716-0.318l-0.636-0.239
		l-0.716-0.239l-0.716-0.159l-0.796-0.159l-0.716-0.159l-0.795-0.08l-0.795-0.079l-0.796-0.079h-0.795h-0.795l-0.875,0.079
		l-0.795,0.079l-0.716,0.159l-0.795,0.159l-0.796,0.159l-0.716,0.239l-0.716,0.318l-0.716,0.239l-0.716,0.398l-0.636,0.318
		l-0.637,0.398l-0.636,0.477l-0.636,0.398l-0.557,0.477l-0.636,0.477l-0.477,0.557l-0.557,0.477l-0.477,0.636l-0.477,0.557
		l-0.477,0.636l-0.398,0.636l-0.398,0.636l-0.398,0.636l-0.318,0.716l-0.318,0.716l-0.318,0.716l-0.239,0.795l-0.239,0.795
		l-0.239,0.716l-0.159,0.796l-0.159,0.795l-0.079,0.875l-0.08,0.796l-0.079,0.795v0.875v0.159v0.875l0.079,0.795l0.08,0.796
		l0.079,0.875l0.159,0.795l0.159,0.796l0.239,0.716l0.239,0.795l0.239,0.716l0.318,0.796l0.318,0.716l0.318,0.716l0.398,0.636
		l0.398,0.716l0.398,0.636l0.398,0.637l0.477,0.557l0.557,0.557l0.477,0.636l0.557,0.478l0.557,0.557l0.557,0.478l0.636,0.398
		l0.636,0.477l0.636,0.398l0.636,0.318l0.716,0.318l0.716,0.318l0.716,0.319l0.795,0.238l0.716,0.159l0.796,0.159l0.795,0.159
		l0.795,0.079l0.796,0.079h0.875h0.875l0.796-0.079l0.795-0.079l0.716-0.079l0.716-0.08l0.716-0.159l0.795-0.239l0.795-0.239
		l0.795-0.239l0.796-0.318l0.795-0.398l0.716-0.318l0.716-0.398l0.716-0.477l0.716-0.478l0.636-0.477l0.557-0.398l0.557-0.478
		l0.557-0.477l0.557-0.477l0.636-0.478l0.557-0.557l0.557,0.557l0.557,0.557l0.557,0.557l0.557,0.557l0.557,0.557l0.557,0.557
		l0.557,0.557l0.557,0.636l0.557,0.557l0.557,0.557l0.557,0.557l0.557,0.557l0.557,0.557l0.557,0.557l-0.557,0.557l-0.557,0.636
		l-0.557,0.557l-0.636,0.477l-0.557,0.557l-0.557,0.478l-0.636,0.557l-0.557,0.398l-0.637,0.477l-0.636,0.477l-0.636,0.398
		l-0.636,0.398l-0.716,0.398l-0.636,0.398l-0.716,0.398l-0.636,0.318l-0.716,0.319l-0.796,0.318l-0.716,0.318l-0.795,0.238
		l-0.795,0.239l-0.796,0.239l-0.795,0.238l-0.875,0.159l-0.716,0.159l-0.716,0.08l-0.716,0.159l-0.716,0.079l-0.716,0.08
		l-0.795,0.079h-0.796l-0.795,0.08h-0.795H237.252z"/>
	<path fill="#364350" d="M290.226,122.656h0.795h0.795h0.796h0.875h0.795h0.796h0.795h0.795h0.795h0.796h0.875h0.796h0.795h0.795
		l0.318,0.716l0.318,0.716l0.318,0.716l0.318,0.796l0.318,0.716l0.238,0.716l0.318,0.716l0.318,0.716l0.318,0.716l0.318,0.796
		l0.318,0.716l0.318,0.716l0.318,0.716l0.318,0.716l0.318,0.716l0.318,0.795l0.318,0.716l0.239,0.716l0.318,0.716l0.318,0.716
		l0.318,0.716l0.318,0.795l0.318,0.716l0.318,0.716l0.318,0.716l0.318,0.716l0.318,0.716l0.318,0.795l0.239,0.716l0.318,0.716
		l0.318,0.716l0.318,0.716l0.318,0.716l0.318,0.795l0.318,0.716l0.318,0.716l0.318,0.716l0.318,0.716l0.318,0.716l0.318,0.716
		l0.239,0.796l0.318,0.716l0.318,0.716l0.318,0.716l0.318,0.716l0.318,0.716l0.318,0.796l0.318,0.716l0.318,0.716l0.318,0.716
		l0.318,0.716l0.239,0.716l0.318,0.796l0.318,0.716l0.318,0.716l0.318,0.716l0.318,0.716l0.318,0.716l0.318,0.795l0.318,0.716
		l0.318,0.716l0.318,0.716l0.239,0.716l0.318,0.716l0.318,0.796l0.318,0.716l0.318,0.716l0.318,0.716l0.318,0.716l0.318,0.716
		l0.318,0.795l0.318,0.716l0.318,0.716l0.318,0.716l0.238,0.716l0.318,0.716l0.318,0.796l0.318,0.716l0.318,0.716l0.318,0.716
		h-0.796h-0.795h-0.795h-0.795h-0.796h-0.795h-0.795h-0.796h-0.875h-0.795h-0.796h-0.795h-0.795h-0.796h-0.795h-0.795l-0.318-0.716
		l-0.318-0.716l-0.239-0.796l-0.318-0.716l-0.318-0.716l-0.318-0.716l-0.239-0.795l-0.318-0.716l-0.318-0.716l-0.318-0.716
		l-0.318-0.716l-0.239-0.795l-0.318-0.716l-0.318-0.716l-0.318-0.716l-0.239-0.796l-0.318-0.716l-0.318-0.716h-0.795h-0.796h-0.795
		H305.1h-0.795h-0.796h-0.795h-0.795h-0.796h-0.716h-0.795h-0.795h-0.796h-0.795h-0.795h-0.716h-0.796h-0.795h-0.795h-0.796h-0.795
		h-0.795h-0.716h-0.796h-0.795h-0.795h-0.796h-0.795h-0.716h-0.795h-0.796h-0.795l-0.318,0.716l-0.318,0.716l-0.239,0.796
		l-0.318,0.716l-0.318,0.716l-0.318,0.716l-0.238,0.795l-0.318,0.716l-0.318,0.716l-0.318,0.716l-0.318,0.716l-0.239,0.795
		l-0.318,0.716l-0.318,0.716l-0.318,0.716l-0.239,0.796l-0.318,0.716l-0.318,0.716h-0.795h-0.795h-0.716h-0.796h-0.795h-0.795
		h-0.796h-0.716h-0.795h-0.795h-0.796h-0.795h-0.795h-0.716h-0.795h-0.795l0.318-0.716l0.318-0.716l0.318-0.716l0.318-0.796
		l0.318-0.716l0.318-0.716l0.238-0.716l0.318-0.716l0.318-0.716l0.318-0.795l0.318-0.716l0.318-0.716l0.318-0.716l0.318-0.716
		l0.318-0.716l0.318-0.796l0.318-0.716l0.318-0.716l0.318-0.716l0.318-0.716l0.239-0.716l0.318-0.795l0.318-0.716l0.318-0.716
		l0.318-0.716l0.318-0.716l0.318-0.716l0.318-0.796l0.318-0.716l0.318-0.716l0.318-0.716l0.318-0.716l0.318-0.716l0.239-0.796
		l0.318-0.716l0.318-0.716l0.318-0.716l0.318-0.716l0.318-0.716l0.318-0.796l0.318-0.716l0.318-0.716l0.318-0.716l0.318-0.716
		l0.318-0.716l0.318-0.716l0.239-0.795l0.318-0.716l0.318-0.716l0.318-0.716l0.318-0.716l0.318-0.716l0.318-0.795l0.318-0.716
		l0.318-0.716l0.318-0.716l0.318-0.716l0.318-0.716l0.318-0.795l0.318-0.716l0.238-0.716l0.318-0.716l0.318-0.716l0.318-0.716
		l0.318-0.795l0.318-0.716l0.318-0.716l0.318-0.716l0.318-0.716l0.318-0.716l0.318-0.796l0.318-0.716l0.318-0.716l0.239-0.716
		l0.318-0.716l0.318-0.716l0.318-0.796l0.318-0.716l0.318-0.716L290.226,122.656z M303.827,156.859l-0.318-0.714l-0.318-0.715
		l-0.239-0.715l-0.318-0.793l-0.318-0.715l-0.318-0.715l-0.238-0.715l-0.318-0.715l-0.318-0.713l-0.318-0.715l-0.318-0.794
		l-0.239-0.715l-0.318-0.715l-0.318-0.713l-0.318-0.715l-0.238-0.715l-0.318-0.794l-0.318-0.715l-0.318-0.713l-0.318-0.715
		l-0.239-0.715l-0.318-0.715l-0.318-0.715l-0.318-0.793l-0.238-0.715l-0.318-0.715l-0.318-0.715l-0.318,0.715l-0.318,0.715
		l-0.239,0.715l-0.318,0.793l-0.318,0.715l-0.318,0.715l-0.318,0.715l-0.318,0.715l-0.239,0.713l-0.318,0.715l-0.318,0.794
		l-0.318,0.715l-0.318,0.715l-0.239,0.713l-0.318,0.715l-0.318,0.715l-0.318,0.794l-0.318,0.715l-0.239,0.713l-0.318,0.715
		l-0.318,0.715l-0.318,0.715l-0.318,0.715l-0.318,0.793l-0.239,0.715l-0.318,0.715l-0.318,0.714h0.796h0.795h0.716h0.795h0.796
		h0.795h0.716h0.795h0.796h0.795h0.716h0.795h0.796h0.795h0.716h0.796h0.795h0.795h0.716h0.796H303.827z"/>
	<path fill="#364350" d="M334.688,123.053h0.795h0.796h0.795h0.795h0.796h0.795h0.795h0.795h0.796h0.795h0.795h0.796h0.795h0.795
		h0.796h0.795h0.875h0.796h0.795h0.795h0.795h0.796h0.795h0.795h0.796h0.795h0.795h0.796h0.795h0.795h0.795h0.796h0.795h0.955
		l0.954,0.08h0.875l0.875,0.079l0.875,0.08l0.875,0.159l0.795,0.159l0.795,0.159l0.796,0.159l0.795,0.239l0.716,0.239l0.796,0.237
		l0.716,0.318l0.636,0.239l0.716,0.318l0.636,0.398l0.636,0.318l0.636,0.398l0.557,0.398l0.636,0.477l0.557,0.476l0.477,0.477
		l0.557,0.477l0.557,0.557l0.477,0.557l0.477,0.557l0.398,0.635l0.398,0.636l0.398,0.636l0.318,0.716l0.318,0.715l0.318,0.636
		l0.238,0.795l0.239,0.716l0.159,0.796l0.159,0.794l0.159,0.795l0.08,0.875l0.079,0.874l0.08,0.875v0.875v0.159v0.953l-0.08,0.875
		l-0.079,0.875l-0.08,0.875l-0.159,0.874l-0.159,0.795l-0.239,0.796l-0.239,0.716l-0.239,0.794l-0.318,0.716l-0.318,0.716
		l-0.318,0.636l-0.398,0.635l-0.398,0.636l-0.477,0.557l-0.477,0.636l-0.557,0.637l-0.557,0.555l-0.557,0.557l-0.636,0.477
		l-0.636,0.478l-0.636,0.477l-0.636,0.477l-0.716,0.398l-0.716,0.396l-0.716,0.398l-0.716,0.319l-0.795,0.318l-0.795,0.318
		l0.477,0.637l0.398,0.637l0.477,0.716l0.477,0.637l0.398,0.637l0.477,0.636l0.477,0.717l0.477,0.637l0.398,0.636l0.477,0.638
		l0.477,0.636l0.398,0.717l0.477,0.636l0.477,0.637l0.398,0.637l0.477,0.637l0.477,0.716l0.398,0.638l0.477,0.637l0.477,0.636
		l0.398,0.717l0.477,0.636l0.477,0.638l0.477,0.636l0.398,0.637l0.477,0.717l0.477,0.637l0.398,0.637l0.477,0.637l0.477,0.716
		l0.398,0.637l0.477,0.637h-0.796h-0.795h-0.795h-0.796h-0.795h-0.795h-0.796h-0.795h-0.795h-0.795h-0.796h-0.795h-0.795h-0.796
		h-0.795h-0.795h-0.796h-0.795l-0.477-0.637l-0.397-0.636l-0.477-0.716l-0.398-0.636l-0.477-0.637l-0.398-0.636l-0.477-0.637
		l-0.398-0.636l-0.477-0.716l-0.477-0.637l-0.398-0.636l-0.477-0.637l-0.398-0.636l-0.477-0.637l-0.398-0.716l-0.477-0.637
		l-0.398-0.636l-0.477-0.637l-0.398-0.636l-0.477-0.637l-0.477-0.716l-0.398-0.637l-0.477-0.636l-0.398-0.637l-0.477-0.636
		l-0.398-0.637l-0.477-0.716l-0.398-0.636l-0.477-0.637h-0.802h-0.801h-0.881h-0.802h-0.802h-0.8h-0.882h-0.8h-0.802h-0.802h-0.881
		h-0.801h-0.802v0.796v0.796v0.795v0.716v0.796v0.795v0.796v0.795v0.796v0.796v0.795v0.716v0.796v0.795v0.796v0.796v0.795v0.796
		v0.796v0.716v0.796v0.795v0.796v0.796h-0.79h-0.79h-0.869h-0.79h-0.79h-0.789h-0.79h-0.87h-0.79h-0.789h-0.79h-0.79h-0.869h-0.79
		h-0.79v-0.796v-0.796v-0.795v-0.796v-0.795v-0.796v-0.796v-0.795v-0.796v-0.796v-0.795v-0.796v-0.796v-0.795v-0.796v-0.796v-0.795
		v-0.796v-0.716v-0.795v-0.796v-0.795v-0.796v-0.796v-0.795v-0.796v-0.796v-0.795v-0.796v-0.796v-0.795v-0.796v-0.796v-0.795V153.2
		v-0.796v-0.795v-0.795v-0.796v-0.795v-0.795v-0.795v-0.796v-0.795v-0.795v-0.796v-0.795v-0.795v-0.796v-0.795v-0.795v-0.795v-0.796
		v-0.795v-0.716v-0.795v-0.796v-0.795v-0.795v-0.796v-0.795v-0.795v-0.796v-0.795v-0.795v-0.795v-0.796v-0.795v-0.795v-0.796v-0.795
		v-0.795V123.053z M360.186,151.211h0.958l0.878-0.079l0.878-0.158l0.798-0.159l0.798-0.158l0.719-0.317l0.639-0.237l0.638-0.395
		l0.639-0.397l0.559-0.475l0.558-0.475l0.479-0.634l0.48-0.554l0.399-0.634l0.239-0.712l0.24-0.712l0.16-0.792l0.159-0.792v-0.792
		v-0.159v-0.87l-0.159-0.871l-0.16-0.792l-0.24-0.792l-0.318-0.713l-0.399-0.633l-0.4-0.634l-0.558-0.554l-0.559-0.475l-0.558-0.396
		l-0.639-0.395l-0.639-0.317l-0.717-0.237l-0.718-0.238l-0.799-0.237l-0.877-0.159l-0.878-0.078l-0.879-0.08h-0.957h-0.798h-0.718
		h-0.799h-0.798h-0.798h-0.718h-0.798h-0.798h-0.718h-0.798h-0.798h-0.719h-0.799h-0.798h-0.798h-0.719h-0.798v0.792v0.792v0.712
		v0.792v0.792v0.793v0.792v0.792v0.712v0.792v0.792v0.792v0.792v0.712v0.792v0.792v0.793v0.792v0.792v0.712v0.792v0.792h0.798h0.798
		h0.798h0.799h0.718h0.798h0.798h0.798h0.798h0.798h0.799h0.798h0.718h0.798h0.798h0.798H360.186z"/>
	<path fill="#364350" d="M423.138,181.915h-0.796h-0.875l-0.795-0.08l-0.796-0.079l-0.796-0.08l-0.795-0.079l-0.796-0.159
		l-0.796-0.08l-0.716-0.159l-0.796-0.239l-0.716-0.159l-0.716-0.239l-0.796-0.159l-0.716-0.318l-0.716-0.239l-0.636-0.318
		l-0.796-0.319l-0.716-0.318l-0.716-0.318l-0.716-0.398l-0.636-0.398l-0.716-0.318l-0.636-0.477l-0.637-0.398l-0.636-0.398
		l-0.637-0.478l-0.636-0.477l-0.557-0.477l-0.557-0.478l-0.637-0.557l-0.477-0.557l-0.637-0.557l-0.557-0.557l-0.557-0.636
		l-0.477-0.637l-0.477-0.636l-0.478-0.637l-0.477-0.636l-0.478-0.716l-0.397-0.716l-0.398-0.716l-0.398-0.716l-0.398-0.716
		l-0.318-0.716l-0.318-0.795l-0.319-0.716l-0.318-0.716l-0.238-0.796l-0.239-0.716l-0.16-0.716l-0.238-0.796l-0.159-0.796
		l-0.159-0.716l-0.079-0.796l-0.159-0.795l-0.079-0.796l-0.079-0.796v-0.795l-0.079-0.875v-0.795v-0.159v-0.796l0.079-0.795v-0.795
		l0.079-0.795l0.079-0.796l0.159-0.795l0.079-0.795l0.159-0.796l0.159-0.716l0.238-0.795l0.239-0.716l0.239-0.796l0.238-0.716
		l0.239-0.716l0.319-0.795l0.318-0.716l0.318-0.636l0.398-0.716l0.319-0.716l0.398-0.636l0.397-0.716l0.398-0.636l0.397-0.636
		l0.477-0.557l0.478-0.636l0.477-0.636l0.477-0.557l0.478-0.557l0.557-0.557l0.557-0.557l0.477-0.557l0.637-0.477l0.557-0.557
		l0.557-0.477l0.636-0.477l0.637-0.398l0.636-0.477l0.637-0.398l0.636-0.477l0.716-0.398l0.716-0.398l0.637-0.318l0.716-0.398
		l0.796-0.318l0.716-0.318l0.716-0.318l0.716-0.239l0.716-0.239l0.716-0.239l0.796-0.239l0.716-0.159l0.796-0.239l0.716-0.159
		l0.795-0.08l0.796-0.159l0.795-0.079l0.796-0.08l0.796-0.079l0.795-0.08h0.875h0.796h0.795h0.875l0.796,0.08l0.795,0.079
		l0.796,0.08l0.796,0.079l0.795,0.159l0.796,0.08l0.716,0.159l0.795,0.239l0.716,0.159l0.716,0.239l0.796,0.159l0.716,0.318
		l0.716,0.239l0.716,0.239l0.716,0.398l0.716,0.318l0.716,0.318l0.716,0.398l0.637,0.318l0.716,0.398l0.637,0.477l0.636,0.398
		l0.637,0.398l0.636,0.477l0.637,0.477l0.556,0.477l0.557,0.477l0.636,0.557l0.557,0.477l0.557,0.636l0.557,0.557l0.557,0.636
		l0.478,0.636l0.477,0.636l0.477,0.636l0.478,0.636l0.477,0.716l0.398,0.716l0.398,0.716l0.398,0.716l0.398,0.716l0.319,0.716
		l0.398,0.796l0.238,0.716l0.318,0.716l0.239,0.795l0.238,0.716l0.159,0.716l0.239,0.796l0.159,0.795l0.159,0.716l0.079,0.796
		l0.16,0.795l0.079,0.795l0.079,0.795v0.796l0.079,0.875v0.795v0.159v0.795l-0.079,0.795v0.796l-0.079,0.796l-0.079,0.795
		l-0.16,0.796l-0.079,0.796l-0.159,0.795l-0.159,0.716l-0.239,0.796l-0.238,0.716l-0.238,0.796l-0.239,0.716l-0.238,0.716
		l-0.318,0.716l-0.318,0.795l-0.319,0.637l-0.318,0.716l-0.398,0.716l-0.398,0.636l-0.398,0.637l-0.397,0.716l-0.398,0.637
		l-0.477,0.557l-0.477,0.637l-0.478,0.637l-0.477,0.557l-0.477,0.557l-0.557,0.557l-0.477,0.557l-0.557,0.557l-0.636,0.477
		l-0.557,0.557l-0.557,0.477l-0.637,0.477l-0.636,0.398l-0.637,0.477l-0.636,0.398l-0.637,0.478l-0.716,0.398l-0.716,0.398
		l-0.636,0.319l-0.716,0.398l-0.796,0.318l-0.716,0.319l-0.716,0.318l-0.716,0.239l-0.716,0.238l-0.716,0.239l-0.795,0.239
		l-0.716,0.159l-0.796,0.239l-0.716,0.159l-0.796,0.08l-0.795,0.159l-0.796,0.079l-0.796,0.08l-0.795,0.079l-0.796,0.08h-0.875
		H423.138z M423.297,170.699h0.875l0.796-0.079l0.875-0.079l0.796-0.159l0.795-0.159l0.796-0.159l0.795-0.238l0.716-0.319
		l0.796-0.318l0.716-0.318l0.637-0.318l0.716-0.398l0.637-0.477l0.636-0.398l0.637-0.478l0.557-0.477l0.557-0.557l0.557-0.557
		l0.478-0.557l0.477-0.557l0.477-0.637l0.398-0.636l0.398-0.637l0.397-0.636l0.398-0.716l0.318-0.716l0.318-0.796l0.238-0.716
		l0.239-0.796l0.239-0.716l0.159-0.795l0.159-0.796l0.079-0.875l0.08-0.795l0.079-0.796v-0.875v-0.159v-0.875l-0.079-0.795
		l-0.08-0.795l-0.079-0.875l-0.159-0.795l-0.238-0.795l-0.159-0.716l-0.239-0.796l-0.318-0.795l-0.318-0.716l-0.318-0.716
		l-0.398-0.716l-0.397-0.636l-0.398-0.716l-0.398-0.636l-0.477-0.636l-0.477-0.557l-0.557-0.636l-0.557-0.557l-0.557-0.477
		l-0.557-0.557l-0.637-0.477l-0.636-0.398l-0.637-0.477l-0.716-0.398l-0.637-0.318l-0.716-0.398l-0.796-0.239l-0.716-0.318
		l-0.795-0.239l-0.796-0.159l-0.796-0.159l-0.795-0.159l-0.875-0.079l-0.796-0.079h-0.875h-0.875l-0.875,0.079l-0.795,0.079
		l-0.875,0.159l-0.796,0.159l-0.795,0.159l-0.716,0.239l-0.796,0.318l-0.716,0.239l-0.716,0.398l-0.716,0.318l-0.637,0.398
		l-0.636,0.477l-0.637,0.398l-0.637,0.477l-0.557,0.477l-0.557,0.557l-0.478,0.477l-0.556,0.636l-0.478,0.557l-0.477,0.636
		l-0.398,0.636l-0.398,0.636l-0.398,0.636l-0.397,0.716l-0.319,0.716l-0.238,0.716l-0.318,0.795l-0.238,0.795l-0.238,0.716
		l-0.16,0.796l-0.159,0.795l-0.079,0.875l-0.079,0.796l-0.079,0.795v0.875v0.159v0.875l0.079,0.795l0.079,0.796l0.079,0.875
		l0.159,0.795l0.16,0.796l0.238,0.716l0.238,0.795l0.318,0.716l0.238,0.796l0.398,0.716l0.318,0.716l0.398,0.636l0.398,0.716
		l0.477,0.636l0.398,0.637l0.557,0.557l0.477,0.557l0.557,0.636l0.557,0.478l0.557,0.557l0.636,0.478l0.637,0.398l0.636,0.477
		l0.716,0.398l0.636,0.318l0.796,0.318l0.716,0.318l0.716,0.319l0.796,0.238l0.795,0.159l0.796,0.159l0.875,0.159l0.795,0.079
		l0.875,0.079H423.297z"/>
	<path fill="#364350" d="M488.481,181.835h-0.873h-0.874l-0.873-0.079l-0.873-0.08l-0.794-0.079l-0.794-0.079l-0.794-0.159
		l-0.794-0.159l-0.794-0.159l-0.715-0.159l-0.794-0.239l-0.715-0.159l-0.716-0.318l-0.794-0.239l-0.715-0.318l-0.714-0.319
		l-0.715-0.318l-0.635-0.398l-0.715-0.398l-0.635-0.398l-0.635-0.477l-0.557-0.478l-0.635-0.477l-0.555-0.477l-0.477-0.557
		l-0.556-0.477l-0.476-0.637l-0.557-0.557l-0.396-0.637l-0.476-0.636l-0.398-0.637l-0.396-0.636l-0.398-0.716l-0.396-0.716
		l-0.319-0.796l-0.318-0.716l-0.317-0.795l-0.239-0.716l-0.239-0.716l-0.158-0.716l-0.238-0.716l-0.159-0.716l-0.159-0.796
		l-0.079-0.796l-0.158-0.795l-0.079-0.796l-0.079-0.875l-0.079-0.875l-0.08-0.875v-0.875v-0.875v-0.796v-0.796v-0.795v-0.796v-0.795
		v-0.795v-0.795v-0.716v-0.795v-0.795v-0.796v-0.795v-0.795v-0.795v-0.796v-0.795v-0.795v-0.796v-0.795v-0.795v-0.796v-0.716v-0.795
		v-0.795v-0.796V135.7v-0.795v-0.795v-0.796v-0.795v-0.795v-0.796v-0.795v-0.795v-0.796v-0.716v-0.795v-0.795v-0.796v-0.795v-0.795
		v-0.796h0.795h0.875h0.796h0.795h0.796h0.875h0.795h0.796h0.795h0.875h0.796h0.795h0.796h0.875h0.796v0.796v0.795v0.795v0.796
		v0.795v0.795v0.796v0.795v0.795v0.795v0.875v0.795v0.795v0.796v0.795v0.795v0.796v0.795v0.795v0.796v0.795v0.795v0.795v0.796v0.795
		v0.795v0.796v0.795v0.795v0.796v0.875v0.795v0.796v0.795v0.795v0.795v0.796v0.795v0.796v0.796v0.795v0.955l0.079,0.955l0.079,0.875
		l0.079,0.875l0.159,0.796l0.159,0.796l0.159,0.795l0.238,0.716l0.239,0.716l0.319,0.716l0.318,0.636l0.397,0.557l0.319,0.636
		l0.397,0.557l0.477,0.477l0.557,0.557l0.557,0.477l0.637,0.477l0.636,0.398l0.637,0.398l0.716,0.318l0.716,0.319l0.716,0.238
		l0.795,0.239l0.875,0.079l0.796,0.159l0.954,0.079h0.875h0.955l0.875-0.079l0.795-0.079l0.875-0.159l0.796-0.239l0.716-0.238
		l0.716-0.239l0.716-0.318l0.716-0.398l0.636-0.398l0.557-0.398l0.636-0.477l0.557-0.557l0.397-0.477l0.398-0.557l0.398-0.557
		l0.398-0.557l0.318-0.637l0.239-0.636l0.318-0.716l0.239-0.716l0.159-0.716l0.159-0.796l0.159-0.795l0.08-0.875l0.08-0.875
		l0.079-0.875v-0.954v-0.796v-0.796v-0.795v-0.796v-0.796v-0.795v-0.795v-0.796v-0.795v-0.795v-0.716v-0.796v-0.795v-0.795v-0.796
		v-0.795v-0.795v-0.796v-0.795v-0.795v-0.795v-0.796v-0.795v-0.795v-0.796V135.7v-0.795v-0.795v-0.796v-0.795v-0.795v-0.716v-0.795
		v-0.795v-0.795v-0.796v-0.795v-0.795v-0.796v-0.795v-0.795v-0.796h0.79h0.791h0.868h0.79h0.791h0.789h0.791h0.87h0.791h0.789h0.791
		h0.79h0.869h0.79h0.79v0.796v0.795v0.795v0.796v0.795v0.795v0.796v0.795v0.795v0.795v0.796v0.795v0.795v0.796v0.795v0.795v0.796
		v0.795v0.795v0.795v0.875v0.795v0.795v0.796v0.795v0.795v0.796v0.795v0.795v0.796v0.795v0.795v0.795v0.796v0.795v0.795v0.796v0.795
		v0.796v0.796v0.795v0.875v0.875l-0.08,0.795l-0.079,0.875v0.796l-0.159,0.795l-0.078,0.796l-0.079,0.716l-0.159,0.796l-0.159,0.716
		l-0.159,0.716l-0.159,0.716l-0.238,0.716l-0.238,0.637l-0.159,0.637l-0.317,0.875l-0.398,0.716l-0.317,0.795l-0.398,0.716
		l-0.318,0.716l-0.476,0.716l-0.396,0.637l-0.477,0.636l-0.476,0.637l-0.477,0.557l-0.476,0.637l-0.556,0.477l-0.557,0.557
		l-0.556,0.477l-0.635,0.477l-0.555,0.478l-0.637,0.477l-0.635,0.398l-0.715,0.398l-0.714,0.398l-0.715,0.318l-0.715,0.319
		l-0.714,0.318l-0.794,0.239l-0.714,0.318l-0.715,0.159l-0.794,0.239l-0.794,0.159l-0.714,0.159l-0.794,0.159l-0.874,0.159
		l-0.794,0.079l-0.794,0.079l-0.874,0.08l-0.873,0.079h-0.874H488.481z"/>
	<path fill="#364350" d="M548.177,181.755h-0.796h-0.796l-0.716-0.08l-0.796-0.079h-0.796l-0.795-0.159l-0.716-0.08l-0.796-0.079
		l-0.795-0.159l-0.716-0.159l-0.795-0.159l-0.716-0.16l-0.796-0.238l-0.716-0.159l-0.716-0.239l-0.795-0.238l-0.716-0.318
		l-0.716-0.239l-0.716-0.318l-0.716-0.318l-0.716-0.318l-0.716-0.319l-0.716-0.318l-0.716-0.398l-0.637-0.398l-0.716-0.398
		l-0.637-0.477l-0.716-0.398l-0.637-0.477l-0.636-0.477l-0.637-0.478l-0.636-0.557l-0.637-0.478l-0.636-0.557l0.557-0.637
		l0.477-0.636l0.557-0.557l0.477-0.636l0.557-0.637l0.477-0.636l0.557-0.637l0.477-0.557l0.557-0.637l0.478-0.636l0.557-0.637
		l0.478-0.557l0.477-0.637l0.557-0.636l0.637,0.557l0.716,0.478l0.636,0.557l0.716,0.477l0.636,0.478l0.716,0.398l0.636,0.478
		l0.716,0.398l0.716,0.398l0.637,0.318l0.716,0.398l0.716,0.318l0.716,0.318l0.716,0.239l0.716,0.239l0.796,0.239l0.716,0.238
		l0.796,0.159l0.795,0.159l0.796,0.08l0.796,0.08l0.795,0.079l0.796,0.079h0.875h0.955l0.954-0.079l0.875-0.16l0.875-0.159
		l0.716-0.239l0.716-0.238l0.716-0.318l0.637-0.398l0.716-0.557l0.557-0.637l0.477-0.716l0.319-0.716l0.159-0.795l0.08-0.875v-0.159
		l-0.08-0.796l-0.159-0.796l-0.239-0.716l-0.397-0.637l-0.636-0.636l-0.716-0.637l-0.636-0.318l-0.637-0.318l-0.716-0.398
		l-0.795-0.318l-0.875-0.318l-0.636-0.238l-0.637-0.159l-0.716-0.239l-0.716-0.239l-0.796-0.159l-0.795-0.238l-0.875-0.239
		l-0.875-0.239l-0.875-0.238l-0.875-0.239l-0.875-0.239l-0.796-0.239l-0.795-0.239l-0.796-0.239l-0.796-0.239l-0.716-0.239
		l-0.716-0.238l-0.716-0.239l-0.796-0.319l-0.796-0.318l-0.716-0.318l-0.637-0.319l-0.716-0.398l-0.637-0.318l-0.636-0.398
		l-0.557-0.477l-0.557-0.398l-0.637-0.477l-0.557-0.557l-0.557-0.557l-0.477-0.636l-0.477-0.636l-0.478-0.637l-0.398-0.636
		l-0.318-0.716l-0.319-0.636l-0.239-0.716l-0.159-0.716l-0.239-0.795l-0.159-0.796l-0.08-0.795l-0.08-0.875l-0.08-0.875v-0.954
		v-0.159v-0.875l0.08-0.795l0.079-0.875l0.158-0.795l0.158-0.795l0.159-0.716l0.236-0.795l0.317-0.716l0.316-0.716l0.316-0.716
		l0.396-0.636l0.395-0.636l0.475-0.637l0.473-0.636l0.475-0.557l0.473-0.557l0.553-0.557l0.633-0.557l0.553-0.477l0.632-0.477
		l0.632-0.398l0.711-0.398l0.712-0.398l0.711-0.398l0.711-0.318l0.791-0.318l0.868-0.318l0.716-0.159l0.716-0.239l0.796-0.159
		l0.796-0.159l0.795-0.159l0.875-0.159l0.796-0.079h0.875l0.875-0.08h0.875h0.875h0.795l0.796,0.08l0.875,0.079l0.795,0.08
		l0.796,0.079l0.796,0.08l0.716,0.159l0.796,0.079l0.795,0.159l0.716,0.239l0.716,0.159l0.795,0.239l0.716,0.159l0.716,0.239
		l0.716,0.318l0.716,0.318l0.795,0.318l0.716,0.318l0.716,0.318l0.716,0.398l0.636,0.318l0.716,0.398l0.716,0.477l0.636,0.398
		l0.716,0.477l0.636,0.477l0.637,0.477l0.636,0.477l-0.477,0.636l-0.477,0.716l-0.398,0.636l-0.477,0.636l-0.478,0.636l-0.477,0.716
		l-0.398,0.636l-0.478,0.636l-0.477,0.716l-0.477,0.636l-0.478,0.636l-0.398,0.636l-0.478,0.716l-0.477,0.636l-0.716-0.477
		l-0.636-0.477l-0.716-0.477l-0.716-0.398l-0.716-0.477l-0.636-0.318l-0.716-0.398l-0.716-0.318l-0.637-0.398l-0.716-0.239
		l-0.636-0.318l-0.796-0.318l-0.795-0.239l-0.716-0.239l-0.796-0.159l-0.716-0.159l-0.796-0.159l-0.716-0.08l-0.796-0.079
		l-0.716-0.079h-0.795h-0.955l-0.875,0.079l-0.795,0.159l-0.716,0.159l-0.716,0.239l-0.636,0.239l-0.557,0.318l-0.557,0.398
		l-0.637,0.557l-0.477,0.557l-0.397,0.636l-0.239,0.636l-0.159,0.716l-0.08,0.716v0.159l0.08,0.954l0.159,0.875l0.319,0.716
		l0.318,0.477l0.477,0.477l0.557,0.477l0.636,0.477l0.637,0.318l0.636,0.398l0.796,0.318l0.875,0.318l0.955,0.318l0.636,0.239
		l0.716,0.239l0.716,0.238l0.716,0.159l0.795,0.239l0.875,0.239l0.875,0.239l0.955,0.239l0.875,0.238l0.875,0.239l0.796,0.239
		l0.875,0.239l0.796,0.239l0.796,0.239l0.716,0.318l0.716,0.239l0.716,0.238l0.716,0.318l0.875,0.398l0.795,0.318l0.716,0.477
		l0.796,0.398l0.636,0.398l0.716,0.477l0.636,0.477l0.637,0.477l0.557,0.557l0.478,0.557l0.557,0.557l0.478,0.557l0.398,0.637
		l0.397,0.636l0.318,0.637l0.398,0.636l0.239,0.716l0.239,0.796l0.238,0.716l0.159,0.796l0.16,0.875l0.079,0.795l0.08,0.875v0.955
		v0.159v0.875l-0.08,0.795l-0.078,0.796l-0.08,0.796l-0.158,0.795l-0.158,0.716l-0.237,0.716l-0.158,0.716l-0.316,0.716
		l-0.237,0.636l-0.395,0.796l-0.396,0.636l-0.395,0.716l-0.473,0.636l-0.475,0.637l-0.553,0.557l-0.553,0.557l-0.553,0.557
		l-0.553,0.478l-0.632,0.477l-0.553,0.398l-0.632,0.398l-0.632,0.398l-0.632,0.398l-0.711,0.319l-0.711,0.318l-0.711,0.238
		l-0.712,0.318l-0.793,0.239l-0.716,0.239l-0.716,0.159l-0.716,0.159l-0.796,0.159l-0.716,0.159l-0.796,0.079l-0.796,0.079
		l-0.795,0.079l-0.796,0.08h-0.875H548.177z"/>
	<path fill="#364350" d="M581.265,123.053h0.795h0.796h0.796h0.795h0.796h0.796h0.795h0.796h0.796h0.716h0.796h0.796h0.795h0.796
		h0.795h0.796h0.796h0.795h0.796h0.796h0.795h0.796h0.796h0.795h0.796h0.796h0.795h0.716h0.795h0.796h0.796h0.795h0.796h0.796h0.795
		h0.796h0.796h0.795h0.796h0.796h0.795h0.796h0.796h0.795h0.796h0.716h0.796h0.796h0.795h0.796h0.796h0.795h0.796h0.796h0.795v0.796
		v0.795v0.716v0.796v0.795v0.795v0.716v0.796v0.795v0.795v0.795v0.716v0.795v0.795h-0.795h-0.796h-0.796h-0.716h-0.796h-0.796
		h-0.795h-0.796h-0.795H616.9h-0.796h-0.716h-0.796h-0.796h-0.795h-0.796h-0.796h-0.795h-0.796h-0.716h-0.796h-0.796h-0.795h-0.796
		h-0.796h-0.795h-0.796h-0.716h-0.795h-0.796h-0.796h-0.795h-0.796h-0.796h-0.795h-0.716h-0.795h-0.796h-0.796h-0.795v0.796v0.716
		v0.795v0.795v0.796v0.716v0.795v0.795v0.796v0.716v0.795v0.795v0.796v0.716v0.795v0.796h0.795h0.796h0.796h0.795h0.796h0.796h0.795
		h0.796h0.716h0.796h0.796h0.795h0.796h0.796h0.795h0.796h0.796h0.795h0.796h0.796h0.795h0.796h0.796h0.795h0.796h0.795h0.716h0.796
		h0.795h0.796h0.796h0.795h0.796h0.796h0.795v0.795v0.795v0.716v0.796v0.795v0.795v0.716v0.796v0.795v0.796v0.796v0.716v0.796v0.795
		h-0.795h-0.796h-0.796h-0.795h-0.796h-0.796h-0.795h-0.796h-0.716h-0.795h-0.796h-0.795h-0.796h-0.796h-0.795h-0.796h-0.796h-0.795
		h-0.796h-0.796h-0.795h-0.796h-0.796h-0.795h-0.796h-0.796h-0.716h-0.796h-0.795h-0.796h-0.796h-0.795h-0.796h-0.796h-0.795v0.796
		v0.796v0.795v0.796v0.796v0.795v0.796v0.796v0.875v0.796v0.796v0.795v0.796v0.796v0.795v0.796h0.795h0.796h0.796h0.795h0.796h0.796
		h0.795h0.796h0.796h0.795h0.796h0.795h0.796h0.796h0.795h0.796h0.796h0.795h0.796h0.796h0.795h0.796h0.796h0.795h0.796h0.796h0.795
		h0.796h0.795h0.796h0.796h0.795h0.796h0.796h0.795h0.796h0.796h0.795h0.796h0.796v0.796v0.795v0.716v0.795v0.796v0.796v0.716v0.796
		v0.796v0.795v0.796v0.716v0.796v0.796h-0.796h-0.796h-0.795h-0.796h-0.796H620.4h-0.796h-0.796h-0.795h-0.796h-0.796h-0.795h-0.796
		h-0.875h-0.795h-0.796h-0.795h-0.796h-0.796h-0.795h-0.796h-0.796h-0.795h-0.796h-0.796h-0.795h-0.796h-0.796h-0.795h-0.796h-0.796
		h-0.795h-0.796h-0.796h-0.795h-0.796h-0.795h-0.796h-0.796h-0.795h-0.796h-0.875h-0.795h-0.796h-0.796h-0.795h-0.796h-0.796h-0.795
		h-0.796h-0.796h-0.795h-0.796h-0.796h-0.795v-0.796v-0.796v-0.795v-0.796v-0.795v-0.796v-0.796v-0.795v-0.796v-0.796v-0.795v-0.796
		v-0.796v-0.795v-0.796v-0.796v-0.795v-0.796v-0.716v-0.795v-0.796v-0.795v-0.796v-0.796v-0.795v-0.796v-0.796v-0.795v-0.796v-0.796
		v-0.795v-0.796v-0.796v-0.795V153.2v-0.796v-0.795v-0.795v-0.796v-0.795v-0.795v-0.795v-0.796v-0.795v-0.795v-0.796v-0.795v-0.795
		v-0.796v-0.795v-0.795v-0.795v-0.796v-0.795v-0.716v-0.795v-0.796v-0.795v-0.795v-0.796v-0.795v-0.795v-0.796v-0.795v-0.795v-0.795
		v-0.796v-0.795v-0.795v-0.796v-0.795v-0.795V123.053z"/>
	<path fill="#364350" d="M637.341,123.053h0.79h0.791h0.868h0.791h0.79h0.79h0.79h0.87h0.791h0.789h0.791h0.791h0.868h0.79h0.791
		v0.796v0.795v0.795v0.796v0.795v0.795v0.796v0.795v0.795v0.795v0.796v0.795v0.795v0.796v0.716v0.795v0.795v0.796v0.795v0.795v0.796
		v0.795v0.795v0.795v0.796v0.795v0.795v0.796v0.795v0.795v0.796v0.795v0.795v0.795v0.796v0.795v0.795v0.796v0.796v0.795v0.796v0.796
		v0.795v0.796v0.716v0.795v0.796v0.796v0.795v0.796v0.795v0.796v0.796v0.795v0.796v0.796v0.795v0.796v0.796h0.796h0.795h0.796h0.796
		h0.795h0.796h0.716h0.796h0.796h0.795h0.796h0.796h0.795h0.796h0.796h0.795h0.796h0.796h0.716h0.796h0.795h0.796h0.796h0.795h0.796
		h0.796h0.795h0.796h0.796h0.795h0.716h0.795h0.796h0.796h0.795h0.796h0.796v0.795v0.796v0.796v0.795v0.796v0.796v0.795v0.796v0.796
		v0.795v0.796v0.795v0.796v0.796h-0.796h-0.796h-0.795h-0.796h-0.796h-0.795h-0.796h-0.795h-0.796h-0.796h-0.795h-0.796h-0.796
		h-0.795h-0.796h-0.796h-0.795h-0.796h-0.796h-0.795h-0.796h-0.796h-0.795h-0.796h-0.795h-0.796h-0.796h-0.795h-0.796h-0.796h-0.795
		h-0.796h-0.796h-0.795h-0.796h-0.796h-0.794h-0.791h-0.789h-0.791h-0.79h-0.791h-0.79h-0.79h-0.79h-0.791h-0.79h-0.79h-0.791
		h-0.789h-0.791h-0.79v-0.796v-0.796v-0.795v-0.796v-0.795v-0.796v-0.796v-0.795v-0.796v-0.796v-0.795v-0.796v-0.796v-0.795v-0.796
		v-0.796v-0.795v-0.796v-0.716v-0.795v-0.796v-0.795v-0.796v-0.796v-0.795v-0.796v-0.796v-0.795v-0.796v-0.796v-0.795v-0.796v-0.796
		v-0.795V153.2v-0.796v-0.795v-0.795v-0.796v-0.795v-0.795v-0.795v-0.796v-0.795v-0.795v-0.796v-0.795v-0.795v-0.796v-0.795v-0.795
		v-0.795v-0.796v-0.795v-0.716v-0.795v-0.796v-0.795v-0.795v-0.796v-0.795v-0.795v-0.796v-0.795v-0.795v-0.795v-0.796v-0.795v-0.795
		v-0.796v-0.795v-0.795V123.053z"/>
</g>
<g>
	<path fill="#364350" d="M153.592,153.095c0,17.138-13.893,31.03-31.03,31.03s-31.03-13.893-31.03-31.03s13.893-31.03,31.03-31.03
		V98.577c-30.11,0-54.518,24.409-54.518,54.518c0,30.11,24.409,54.518,54.518,54.518c30.11,0,54.518-24.409,54.518-54.518H153.592z"
		/>
	<path fill="#28CE67" d="M146.733,133.646l16.659-16.659c-1.477-1.669-3.053-3.245-4.722-4.722l-16.659,16.659
		C143.749,130.324,145.333,131.908,146.733,133.646z"/>
	<path fill="#0BACFF" d="M145.057,103.438c-2.018-0.916-4.095-1.725-6.235-2.393l-8.394,22.029c2.184,0.571,4.27,1.378,6.238,2.385
		L145.057,103.438z"/>
	<path fill="#F65B4F" d="M172.219,130.6l-22.021,8.391c1.007,1.968,1.814,4.055,2.385,6.238l22.029-8.394
		C173.944,134.694,173.135,132.618,172.219,130.6z"/>
</g>
</svg>
