<?xml version="1.0" encoding="utf-8"?>
<!-- Generator: Adobe Illustrator 19.1.0, SVG Export Plug-In . SVG Version: 6.00 Build 0)  -->
<!DOCTYPE svg PUBLIC "-//W3C//DTD SVG 1.1//EN" "http://www.w3.org/Graphics/SVG/1.1/DTD/svg11.dtd">
<svg version="1.1" id="Layer_1" xmlns="http://www.w3.org/2000/svg" xmlns:xlink="http://www.w3.org/1999/xlink" x="0px" y="0px"
	 viewBox="0 -50 750 400" enable-background="new 0 -50 750 400" xml:space="preserve">
<g id="E5zzBq_1_">
</g>
<g>
	<path fill="#00237E" d="M305.85,126.15c-17.6,0-31,12.8-31,30.8s13.3,30.8,31,30.8c8.3,0,15.1-3.7,17.6-7v6.3h13.8v-60.1h-13.8v6.3
		C320.85,129.85,314.05,126.15,305.85,126.15 M306.35,174.85c-10.2,0-18.2-8.2-18.2-18s7.9-18,18.2-18c10,0,17.6,8.2,17.6,18
		S316.35,174.85,306.35,174.85"/>
	<path fill="#00237E" d="M425.05,126.15c-8.1,0-14.2,3.2-18.2,7v-6.3h-13.5v91.6l13.5-1.5v-36.3c3.9,4.1,10.5,7,18.2,7
		c18.4,0,30.6-12.1,30.6-30.8C455.65,138.05,443.45,126.15,425.05,126.15 M424.45,174.85c-10.7,0-17.8-7.7-17.8-18
		c0-10.4,7-18,17.8-18s17.9,7.6,17.9,18S435.15,174.85,424.45,174.85"/>
	<path fill="#00237E" d="M559.45,126.15c-8.7,0-13,3.1-15.9,7v-6.3h-13.6v60.1h13.6v-33.1c0-8.9,6-14.9,14.7-14.9h1.2L559.45,126.15
		L559.45,126.15z"/>
	<path fill="#00237E" d="M491.65,126.15c-17.5,0-31.3,13.7-31.3,30.8c0,17.1,13.8,30.8,31.7,30.8c14.7,0,26.6-8,30.3-18.9h-16
		c-2,3.9-7.1,6.5-14.3,6.5c-8.9,0-15.9-6.1-17.4-13.7h48c0.2-1.5,0.4-3,0.4-4.6C522.95,139.75,509.15,126.15,491.65,126.15
		 M475.25,149.55c2-6.3,8.7-11.3,16.4-11.3c7.8,0,14.5,5,16.4,11.3H475.25z"/>
	<path fill="#00237E" d="M366.05,137.95c-2.8,0-5.6,1.3-5.6,4.6c0,3.8,3.9,5.1,11.2,7.7c10.1,3.6,14.9,8.6,14.9,17.8
		c0,9.5-8.1,19.5-21.8,19.5c-14,0-21.2-10.3-21.7-18.9h13.1c0.8,3.8,3.6,6.9,8.6,6.9s8-3.4,8-7.5c0-2.8-1-5.8-9.5-8
		c-9.2-2.5-15.8-7.5-15.8-17.4c0-9,8-16.5,18.5-16.5c9.2,0,15.1,6.3,17.6,10.7l-11,5.2C370.95,139.35,368.75,137.95,366.05,137.95"
		/>
	<path fill="#00237E" d="M234.15,101.55c-24.6,0-43.6,19.2-43.6,43s19,43,43.6,43c15.5,0,30.2-8.4,36.9-20.5l-12.8-7
		c-4.9,8.8-13.6,13.8-24.1,13.8c-7.9,0-15.3-3.1-20.3-8.5c-5.4-5.7-8.3-13.2-8.3-20.9s2.9-15.1,8.3-20.9c5-5.4,12.4-8.5,20.3-8.5
		c8.3,0,13.3,2.9,16.8,5.4c3.6,2.7,7.7,5.3,14.1,5.3c12.1,0,17.3-9.7,18.4-14.8l-13.3-2.8c-0.1,0.5-1,4.2-5.1,4.2
		c-1.8,0-2.9-0.7-5.8-2.9C254.55,106.35,248.05,101.55,234.15,101.55"/>
</g>
</svg>
