<?xml version="1.0" encoding="utf-8"?>
<!-- Generator: Adobe Illustrator 19.1.0, SVG Export Plug-In . SVG Version: 6.00 Build 0)  -->
<!DOCTYPE svg PUBLIC "-//W3C//DTD SVG 1.1//EN" "http://www.w3.org/Graphics/SVG/1.1/DTD/svg11.dtd">
<svg version="1.1" id="Layer_1" xmlns="http://www.w3.org/2000/svg" xmlns:xlink="http://www.w3.org/1999/xlink" x="0px" y="0px"
	 viewBox="150 -75 450 450" enable-background="new 150 -75 450 450" xml:space="preserve">
<g id="E5zzBq_1_">
</g>
<path fill="#00237E" d="M374.881,12.416c-78.711,0-139.504,61.433-139.504,137.584s60.793,137.584,139.504,137.584
	c49.594,0,96.629-26.877,118.066-65.592l-40.955-22.397c-15.678,28.157-43.515,44.155-77.111,44.155
	c-25.277,0-48.954-9.919-64.952-27.197c-17.278-18.238-26.557-42.235-26.557-66.872s9.279-48.314,26.557-66.872
	c15.998-17.278,39.675-27.197,64.952-27.197c26.557,0,42.555,9.279,53.754,17.278c11.519,8.639,24.637,16.958,45.115,16.958
	c38.716,0,55.354-31.036,58.873-47.354l-42.555-8.959c-0.32,1.6-3.2,13.438-16.318,13.438c-5.759,0-9.279-2.24-18.558-9.279
	C440.153,27.774,419.356,12.416,374.881,12.416"/>
</svg>
