<?xml version="1.0" encoding="utf-8"?>
<!-- Generator: Adobe Illustrator 18.1.0, SVG Export Plug-In . SVG Version: 6.00 Build 0)  -->
<!DOCTYPE svg PUBLIC "-//W3C//DTD SVG 1.1//EN" "http://www.w3.org/Graphics/SVG/1.1/DTD/svg11.dtd">
<svg version="1.1" id="Layer_1" xmlns="http://www.w3.org/2000/svg" xmlns:xlink="http://www.w3.org/1999/xlink" x="0px" y="0px"
	 viewBox="0 0 450 450" enable-background="new 0 0 450 450" xml:space="preserve">
<g>
	<path fill="#222222" d="M324.577,316.374c-10.149,11.197-23.527,20.814-40.138,28.856c-16.616,8.042-36.293,12.068-59.025,12.068
		c-19.938,0-38.039-3.238-54.305-9.707c-16.265-6.469-30.169-15.559-41.712-27.284c-11.542-11.714-20.552-25.618-27.021-41.712
		c-6.476-16.085-9.707-33.751-9.707-52.992c0-18.184,3.32-35.235,9.969-51.156c6.64-15.912,15.822-29.816,27.545-41.712
		c11.716-11.887,25.709-21.25,41.975-28.07c16.265-6.821,34.014-10.231,53.255-10.231c22.38,0,41.793,3.672,58.239,11.018
		c16.437,7.345,30.251,17.142,41.45,29.382l-45.647,49.32c-5.6-6.296-12.421-11.887-20.463-16.79
		c-8.05-4.894-18.716-7.346-32.005-7.346c-9.099,0-17.232,1.837-24.397,5.509c-7.173,3.673-13.298,8.485-18.364,14.429
		c-5.075,5.952-8.92,12.855-11.542,20.725c-2.624,7.87-3.935,16.183-3.935,24.922c0,8.051,1.312,16.004,3.935,23.873
		c2.623,7.871,6.468,14.872,11.542,20.987c5.067,6.125,11.191,11.109,18.364,14.954c7.165,3.854,15.298,5.771,24.397,5.771
		c12.937,0,23.782-2.533,32.529-7.607c8.74-5.066,15.742-10.576,20.989-16.528L324.577,316.374z"/>
</g>
</svg>
