<?xml version="1.0" encoding="utf-8"?>
<!-- Generator: Adobe Illustrator 18.0.0, SVG Export Plug-In . SVG Version: 6.00 Build 0)  -->
<!DOCTYPE svg PUBLIC "-//W3C//DTD SVG 1.1//EN" "http://www.w3.org/Graphics/SVG/1.1/DTD/svg11.dtd">
<svg version="1.1" id="Layer_1" xmlns="http://www.w3.org/2000/svg" xmlns:xlink="http://www.w3.org/1999/xlink" x="0px" y="0px"
	 viewBox="150 -75 450 450" enable-background="new 150 -75 450 450" xml:space="preserve">
<g id="E5zzBq_1_">
</g>
<path fill="#D5641C" d="M233.028,97.758c0-1.795,0.179-2.872,3.231-2.872h41.102c7.179,0,11.128,6.102,14,17.589l2.333,9.154h7
	c1.256-26.025,2.333-37.333,2.333-37.333s-17.589,1.974-28,1.974h-52.589l-28.179-0.897v7.538l9.513,1.795
	c6.641,1.256,8.256,2.692,8.795,8.795c0,0,0.538,17.948,0.538,47.563s-0.538,47.384-0.538,47.384c0,5.385-2.154,7.359-8.795,8.615
	l-9.513,1.795v7.538l28.179-0.897h47.025c10.59,0,35.179,0.897,35.179,0.897c0.538-6.461,4.128-35.717,4.667-38.948h-6.641
	l-7,15.974c-5.564,12.564-13.641,13.461-22.615,13.461H246.31c-8.974,0-13.282-3.59-13.282-11.308v-40.922
	c0,0,19.923,0,26.384,0.538c5.026,0.359,8.077,1.795,9.692,8.795l2.154,9.333h7.718l-0.538-23.512l1.077-23.692h-7.718l-2.513,10.41
	c-1.615,6.82-2.692,8.077-9.692,8.795c-9.154,0.897-26.564,0.718-26.564,0.718V97.758z M469.588,245.473
	c-5.385,0-7-2.513-7.718-6.102l-2.692-14l-7.538,0.359c-1.077,8.256-2.692,17.589-4.846,24.948
	c5.026,3.41,11.128,5.026,19.384,5.026c12.205,0,30.512-3.41,47.025-42.358l28.717-68.025c2.333-5.385,3.051-6.102,10.051-8.795
	l3.769-1.436v-6.282l-17.051,0.897l-18.128-0.897v6.282l4.667,1.436c4.667,1.436,6.82,3.051,6.82,6.82
	c0,1.974-0.538,2.872-1.615,5.385c-1.974,5.026-14.718,36.435-21,50.076c-7.897-19.743-18.666-49.179-19.923-53.486
	c-0.359-1.077-0.538-1.974-0.538-2.872c0-2.872,1.974-5.205,6.282-6.102l5.923-1.256v-6.282l-24.589,0.897l-19.564-0.897v6.282
	l3.231,1.077c4.667,1.615,5.205,2.154,8.256,8.974c12.384,28,26.205,63.717,30.692,75.383
	C489.511,240.089,478.024,245.473,469.588,245.473L469.588,245.473z M396.179,187.5l-6.82,0.179c0.897,8.615,1.077,17.23,0,25.128
	c0,0,13.641,5.026,27.461,5.026c18.666,0,33.564-8.974,33.564-26.384c0-30.512-45.23-25.666-45.23-46.127
	c0-8.436,7.718-11.666,15.615-11.666c6.641,0,12.025,2.333,13.102,5.743l4.487,13.461l6.641-0.359
	c0.359-7.179,0.897-15.436,1.974-22.077c-5.743-2.513-17.769-3.949-25.307-3.949c-17.589,0-31.769,7.718-31.769,24.948
	c0,30.153,44.153,23.512,44.153,46.127c0,7.538-4.846,13.282-15.615,13.282c-10.231,0-15.256-5.205-17.23-10.41L396.179,187.5z
	 M339.642,102.783c-3.769,21.718-14.179,29.615-26.923,31.051v6.282h15.974v55.102c0,15.436,10.231,22.974,23.871,22.974
	c10.59,0,21.538-4.487,25.307-13.82l-3.769-4.846c-1.795,3.051-7.538,7.538-14.718,7.538c-7.897,0-12.205-5.385-12.205-19.025
	v-48.64l26.564,1.974l1.436-12.205l-28,1.077v-27.461H339.642z"/>
</svg>
