<?xml version="1.0" encoding="utf-8"?>
<!-- Generator: Adobe Illustrator 17.0.0, SVG Export Plug-In . SVG Version: 6.00 Build 0)  -->
<!DOCTYPE svg PUBLIC "-//W3C//DTD SVG 1.1//EN" "http://www.w3.org/Graphics/SVG/1.1/DTD/svg11.dtd">
<svg version="1.1" id="Layer_1" xmlns="http://www.w3.org/2000/svg" xmlns:xlink="http://www.w3.org/1999/xlink" x="0px" y="0px"
	 viewBox="0 0 750 450" enable-background="new 0 0 750 450" xml:space="preserve">
<path fill="#231F20" d="M375.003,361.667c-75.365,0-136.669-61.313-136.669-136.671c0-75.357,61.304-136.662,136.669-136.662
	c75.359,0,136.664,61.305,136.664,136.662S450.361,361.667,375.003,361.667z M375.003,97.7
	c-70.198,0-127.298,57.097-127.298,127.294c0,70.191,57.1,127.3,127.298,127.3c70.184,0,127.29-57.108,127.29-127.3
	C502.293,154.797,445.188,97.7,375.003,97.7z"/>
<path fill="#231F20" d="M301.849,199.19c-2.591,0-4.692-2.096-4.692-4.697v-24.562c0-2.587,2.102-4.684,4.692-4.684h60.214
	c2.591,0,4.69,2.096,4.69,4.684c0,2.596-2.1,4.693-4.69,4.693h-55.53v19.869C306.533,197.094,304.424,199.19,301.849,199.19z"/>
<path fill="#231F20" d="M328.69,291.855c-11.395,0-22.101-4.449-30.16-12.484c-1.832-1.848-1.832-4.81,0-6.649
	c1.836-1.811,4.798-1.811,6.637,0c12.964,12.997,34.066,12.997,47.054,0c12.968-12.956,12.955-34.064-0.016-47.055
	c-12.972-12.953-34.074-12.953-47.037,0c-1.84,1.837-4.801,1.837-6.637,0c-1.832-1.826-1.832-4.798,0-6.618
	c8.059-8.056,18.764-12.481,30.16-12.481c11.386,0,22.1,4.425,30.158,12.481c16.621,16.638,16.621,43.688,0,60.322
	C350.791,287.405,340.077,291.855,328.69,291.855z"/>
<path fill="#231F20" d="M413.537,291.855c-11.39,0-22.093-4.449-30.162-12.484c-1.813-1.848-1.813-4.81,0-6.649
	c1.842-1.811,4.813-1.811,6.648,0c6.281,6.3,14.636,9.756,23.514,9.756c8.889,0,17.243-3.457,23.537-9.756
	c12.961-12.956,12.961-34.064,0-47.055c-1.617-1.608-3.439-3.065-5.343-4.332c-2.172-1.417-2.778-4.339-1.35-6.487
	c1.421-2.166,4.321-2.768,6.477-1.344c2.459,1.613,4.749,3.477,6.837,5.545c16.622,16.638,16.622,43.688,0,60.322
	C435.636,287.405,424.922,291.855,413.537,291.855z"/>
<path fill="#231F20" d="M399.144,228.272c-1.19,0-2.401-0.461-3.316-1.366c-1.833-1.827-1.833-4.792-0.016-6.633l45.379-45.648
	h-59.355c-2.607,0-4.69-2.097-4.69-4.693c0-2.587,2.083-4.684,4.69-4.684h70.618c1.887,0,3.602,1.135,4.323,2.891
	c0.733,1.748,0.329,3.752-0.989,5.117l-53.325,53.618C401.558,227.802,400.346,228.272,399.144,228.272z"/>
</svg>
