<?xml version="1.0" encoding="utf-8"?>
<!-- Generator: Adobe Illustrator 18.1.0, SVG Export Plug-In . SVG Version: 6.00 Build 0)  -->
<!DOCTYPE svg PUBLIC "-//W3C//DTD SVG 1.1//EN" "http://www.w3.org/Graphics/SVG/1.1/DTD/svg11.dtd">
<svg version="1.1" id="Layer_1" xmlns="http://www.w3.org/2000/svg" xmlns:xlink="http://www.w3.org/1999/xlink" x="0px" y="0px"
	 viewBox="0 -50 750 400" enable-background="new 0 -50 750 400" xml:space="preserve">
<g id="E5zzBq_1_">
</g>
<g>
	<g>
		<path fill="#354A5E" d="M252.111,190.263v-32.854h-13.544v32.854h-17.935v-77.179h17.935v30.668h13.544v-30.668h17.927v77.179
			H252.111z"/>
		<path fill="#354A5E" d="M301.349,191.425c-15.503,0-23.724-7.645-23.724-22.334v-17.132c0-15.849,7.758-23.13,24.308-23.13
			c13.185,0,21.746,6.936,21.746,20.357v14.23h-28.812v9.375c0,4.286,2.081,6.708,5.904,6.708c4.051,0,5.784-1.732,5.784-7.521
			v-1.388h17.124v1.388C323.679,185.292,314.428,191.425,301.349,191.425z M306.91,146.288c0-4.156-2.211-6.478-5.91-6.478
			c-3.929,0-6.133,2.44-6.133,6.478v6.956h12.043V146.288z"/>
		<path fill="#354A5E" d="M331.244,190.263v-81.69h17.006v81.69H331.244z"/>
		<path fill="#354A5E" d="M386.374,191.648c-5.551,0-9.491-1.959-13.66-6.822v30.09H355.7v-84.94h16.091l0.459,5.438
			c4.056-4.277,9.147-6.585,14.469-6.585c9.958,0,15.39,7.175,15.39,19.893v21.985C402.109,184.593,396.786,191.648,386.374,191.648
			z M385.215,147.912c0-5.089-1.973-7.64-5.677-7.64c-2.541,0-4.511,1.394-6.825,3.711v32.623c1.966,2.2,4.639,3.596,6.717,3.596
			c3.933,0,5.784-2.435,5.784-7.527V147.912z"/>
		<path fill="#354A5E" d="M450.105,191.425c-15.27,0-23.946-8.105-23.946-21.531v-3.354h17.586v2.207
			c0,7.056,1.85,10.298,7.065,10.298c5.085,0,6.598-2.439,6.598-6.952c0-14.343-30.094-18.052-30.094-40.613
			c0-12.615,8.221-19.672,24.532-19.672c14.808,0,22.101,8.568,22.101,21.411v1.845h-16.659v-2.082c0-6.014-2.084-8.791-6.479-8.791
			c-4.401,0-6.246,2.317-6.246,6.257c0,11.218,30.773,17.816,30.773,40.954C475.337,184.475,467.822,191.425,450.105,191.425z"/>
		<path fill="#354A5E" d="M505.965,191.425c-15.036,0-23.143-6.833-23.143-19.446v-24.067c0-11.688,8.915-19.083,22.915-19.083
			c13.419,0,21.401,6.82,21.401,17.809v4.973h-16.545v-3.347c0-4.513-1.389-7.065-5.323-7.065c-3.582,0-5.432,2.436-5.432,7.065
			v23.371c0,5.208,1.493,7.409,5.676,7.409c3.69,0,5.318-1.854,5.318-6.952v-2.772h16.887v3.47
			C527.719,185.068,520.887,191.425,505.965,191.425z"/>
		<path fill="#354A5E" d="M557.595,191.425c-14.471,0-23.148-6.357-23.148-21.415v-20.712c0-14.115,10.424-20.47,23.49-20.47
			c13.424,0,23.138,6.012,23.138,20.47v20.712C581.075,185.292,572.045,191.425,557.595,191.425z M564.068,148.494
			c0-4.277-1.623-7.294-6.251-7.294c-4.623,0-6.36,3.017-6.36,7.294v23.485c0,4.284,1.85,7.066,6.36,7.066
			c4.515,0,6.251-2.782,6.251-7.066V148.494z"/>
		<path fill="#354A5E" d="M618.347,190.263l-0.575-5.437c-4.178,3.937-9.148,6.599-14.933,6.599
			c-11.232,0-14.461-8.213-14.461-18.164v-43.285h16.996v43.514c0,3.116,1.057,5.672,4.644,5.672c2.659,0,4.971-1.621,6.826-3.359
			v-45.827h17.006v60.287H618.347z"/>
		<path fill="#354A5E" d="M669.153,191.425c-14,0-19.909-6.711-19.909-20.481v-28.923h-7.397v-12.045h7.521v-14.458l17.006-2.434
			v16.892h12.611v12.045h-12.611v28.455c0,4.755,2.073,7.635,7.065,7.635c1.959,0,3.924-0.342,5.779-0.807l0.114,12.845
			C675.974,190.844,672.625,191.425,669.153,191.425z"/>
	</g>
	<path fill="#EABE5C" d="M174.814,170.535c0,0-1.84,2.143-4.184,4.61c5.221-6.761,8.065-13.352,9.218-19.629
		c2.733,0.07,11.025-0.579,11.25-11.088c0,0-0.832-11.144,0.617-12.679c0,0-9.772,0.976-11.253,17.58
		c0.089-6.062-1.293-11.76-3.504-16.945c2.125-0.972,10.063-5.502,3.399-16.59c0,0-1.804-3.001-1.607-5.318
		c0,0-8.264,4.982-5.584,12.942c0,0,1.091,2.165,2.256,5.685c-2.787-5.459-6.388-10.255-9.909-14.202
		c-0.119-2.249-1.686-17.006-22.534-13.246c0,0,3.087,17.054,21.709,13.682c3.085,3.868,6.187,8.513,8.555,13.747
		c-3.134-5.074-9.629-12.385-18.859-6.593c0,0,2.831,1.876,5.701,8.008c0,0,2.544,6.914,14.849,2.816
		c1.836,5.258,2.825,11.003,2.323,17.072c-0.579-3.364-3.422-14.493-15.351-10.003c0,0,1.98,2.738,2.68,7.398
		c0,0,2.438,7.841,11.933,7.558c-1.227,5.665-3.841,11.563-8.311,17.571c1.788-4.769,3.514-13.939-7.648-17.625
		c0,0,0.804,3.041-1.27,6.484c0,0-4.912,8.324,4.154,16.82c-3.545,3.778-7.882,7.584-13.112,11.389
		c2.557-3.521,5.016-9.793,0.747-18.846c0,0,0.373,2.421-3.678,3.632c0,0-12.805,3.982-4.888,20.453
		c-2.292,1.423-5.784,3.267-10.895,5.197c-5.109-1.931-8.601-3.773-10.895-5.196c7.924-16.472-4.884-20.454-4.884-20.454
		c-4.058-1.212-3.681-3.632-3.681-3.632c-4.268,9.047-1.813,15.316,0.742,18.838c-5.226-3.802-9.56-7.605-13.103-11.382
		c9.064-8.495,4.155-16.818,4.155-16.818c-2.075-3.443-1.278-6.484-1.278-6.484c-11.15,3.684-9.433,12.845-7.646,17.616
		c-4.468-6.005-7.08-11.899-8.307-17.562c9.489,0.283,11.93-7.558,11.93-7.558c0.704-4.66,2.681-7.398,2.681-7.398
		c-11.91-4.482-14.764,6.598-15.351,9.985c-0.499-6.063,0.49-11.802,2.323-17.054c12.308,4.099,14.847-2.816,14.847-2.816
		c2.874-6.132,5.699-8.008,5.699-8.008c-9.228-5.794-15.722,1.521-18.857,6.594c2.367-5.235,5.471-9.881,8.556-13.749
		c18.622,3.374,21.711-13.682,21.711-13.682c-20.829-3.758-22.411,10.97-22.531,13.239c-3.522,3.946-7.124,8.742-9.913,14.202
		c1.162-3.516,2.255-5.678,2.255-5.678c2.684-7.96-5.58-12.942-5.58-12.942c0.193,2.317-1.612,5.318-1.612,5.318
		c-6.663,11.083,1.267,15.613,3.399,16.589c-2.199,5.157-3.58,10.824-3.506,16.85c-1.513-16.514-11.246-17.483-11.246-17.483
		c1.446,1.535,0.617,12.679,0.617,12.679c0.225,10.51,8.514,11.158,11.245,11.088c1.152,6.269,3.991,12.852,9.2,19.605
		c-2.334-2.458-4.164-4.587-4.164-4.587c-7.855-9.475-17.756-9.449-17.756-9.449c1.292,2.435,2.071,7.197,2.071,7.197
		c1.647,7.9,6.792,11.809,6.792,11.809c5.961,4.979,15.012,1.108,17.304-0.005c3.76,4.013,8.396,8.071,14.032,12.148
		c-3.075-1.853-11.004-6.149-15.349-4.044c-0.184,0.089-5.756,2.627-13.148,0.531c0,0,11.535,18.372,35.723,9.272
		c2.643,1.576,5.542,2.945,8.553,4.135c-5.862,1.878-13.248,3.729-22.601,5.236l3.301,2.175c4.638-0.866,14.509-2.432,24.273-5.624
		c9.765,3.192,19.637,4.758,24.269,5.624l3.31-2.175c-9.354-1.507-16.742-3.359-22.605-5.236c3.01-1.189,5.909-2.559,8.55-4.134
		c24.197,9.098,35.729-9.273,35.729-9.273c-7.395,2.095-12.969-0.442-13.147-0.531c-4.344-2.103-12.262,2.181-15.346,4.038
		c5.634-4.075,10.268-8.132,14.026-12.144c2.283,1.109,11.339,4.99,17.303,0.008c0,0,5.149-3.908,6.796-11.809
		c0,0,0.776-4.762,2.071-7.197C192.573,161.086,182.673,161.06,174.814,170.535z"/>
</g>
</svg>
