<?xml version="1.0" encoding="utf-8"?>
<!-- Generator: Adobe Illustrator 18.1.0, SVG Export Plug-In . SVG Version: 6.00 Build 0)  -->
<!DOCTYPE svg PUBLIC "-//W3C//DTD SVG 1.1//EN" "http://www.w3.org/Graphics/SVG/1.1/DTD/svg11.dtd">
<svg version="1.1" id="Layer_1" xmlns="http://www.w3.org/2000/svg" xmlns:xlink="http://www.w3.org/1999/xlink" x="0px" y="0px"
	 viewBox="150 -75 450 450" enable-background="new 150 -75 450 450" xml:space="preserve">
<g id="E5zzBq_1_">
</g>
<path fill="#EABE5C" d="M480.372,187.186c0,0-4.488,5.228-10.207,11.247c12.736-16.495,19.675-32.572,22.488-47.885
	c6.667,0.171,26.895-1.413,27.445-27.05c0,0-2.03-27.186,1.505-30.932c0,0-23.838,2.381-27.452,42.887
	c0.218-14.788-3.155-28.688-8.548-41.339c5.184-2.371,24.55-13.422,8.292-40.472c0,0-4.4-7.321-3.92-12.973
	c0,0-20.161,12.154-13.621,31.573c0,0,2.662,5.282,5.504,13.868c-6.8-13.318-15.584-25.017-24.173-34.646
	c-0.291-5.487-4.112-41.487-54.972-32.313c0,0,7.53,41.604,52.959,33.379c7.527,9.436,15.094,20.769,20.87,33.537
	c-7.646-12.379-23.49-30.214-46.007-16.084c0,0,6.907,4.577,13.909,19.536c0,0,6.205,16.867,36.224,6.869
	c4.479,12.828,6.892,26.841,5.668,41.648c-1.413-8.207-8.348-35.357-37.45-24.404c0,0,4.83,6.679,6.537,18.047
	c0,0,5.946,19.128,29.111,18.439c-2.994,13.821-9.37,28.207-20.275,42.865c4.362-11.633,8.573-34.004-18.658-42.998
	c0,0,1.96,7.419-3.098,15.819c0,0-11.984,20.307,10.134,41.032c-8.649,9.218-19.229,18.502-31.988,27.783
	c6.237-8.589,12.237-23.889,1.821-45.976c0,0,0.91,5.905-8.972,8.861c0,0-31.239,9.714-11.924,49.895
	c-5.592,3.471-14.111,7.97-26.578,12.679c-12.464-4.71-20.984-9.205-26.579-12.676c19.33-40.184-11.914-49.899-11.914-49.899
	c-9.901-2.956-8.981-8.861-8.981-8.861c-10.413,22.071-4.422,37.365,1.811,45.957c-12.749-9.275-23.323-18.553-31.966-27.767
	c22.113-20.725,10.135-41.029,10.135-41.029c-5.061-8.399-3.117-15.819-3.117-15.819c-27.201,8.987-23.013,31.337-18.654,42.976
	c-10.9-14.649-17.273-29.029-20.266-42.843c23.149,0.689,29.105-18.439,29.105-18.439c1.717-11.368,6.541-18.047,6.541-18.047
	c-29.054-10.935-36.018,16.096-37.45,24.36c-1.217-14.791,1.195-28.792,5.668-41.604c30.025,9.999,36.22-6.869,36.22-6.869
	c7.011-14.959,13.903-19.536,13.903-19.536c-22.511-14.133-38.354,3.711-46.001,16.087c5.776-12.771,13.346-24.104,20.873-33.54
	c45.429,8.232,52.965-33.379,52.965-33.379c-50.812-9.167-54.672,26.762-54.966,32.298c-8.592,9.626-17.38,21.325-24.183,34.646
	c2.836-8.576,5.5-13.853,5.5-13.853c6.547-19.419-13.612-31.573-13.612-31.573c0.471,5.652-3.933,12.973-3.933,12.973
	c-16.254,27.037,3.092,38.089,8.292,40.469c-5.364,12.582-8.734,26.406-8.554,41.105c-3.692-40.286-27.436-42.65-27.436-42.65
	c3.528,3.746,1.505,30.932,1.505,30.932c0.55,25.641,20.771,27.221,27.432,27.05c2.81,15.294,9.736,31.352,22.444,47.828
	c-5.693-5.996-10.157-11.19-10.157-11.19c-19.163-23.114-43.317-23.051-43.317-23.051c3.152,5.939,5.052,17.557,5.052,17.557
	c4.018,19.273,16.57,28.808,16.57,28.808c14.541,12.145,36.622,2.703,42.214-0.013c9.174,9.79,20.481,19.691,34.232,29.636
	c-7.501-4.521-26.844-15-37.444-9.866c-0.449,0.218-14.042,6.408-32.076,1.296c0,0,28.14,44.819,87.146,22.618
	c6.449,3.844,13.52,7.185,20.866,10.087c-14.301,4.58-32.32,9.098-55.137,12.774l8.052,5.305
	c11.313-2.112,35.396-5.933,59.215-13.72c23.823,7.786,47.904,11.608,59.205,13.72l8.074-5.305
	c-22.82-3.676-40.842-8.194-55.146-12.774c7.344-2.902,14.415-6.244,20.857-10.084c59.028,22.194,87.163-22.622,87.163-22.622
	c-18.041,5.112-31.637-1.078-32.073-1.296c-10.597-5.13-29.915,5.32-37.438,9.85c13.745-9.942,25.049-19.839,34.217-29.626
	c5.57,2.706,27.663,12.173,42.211,0.019c0,0,12.562-9.534,16.58-28.808c0,0,1.894-11.618,5.052-17.557
	C523.696,164.136,499.545,164.072,480.372,187.186z"/>
</svg>
