<?xml version="1.0" encoding="utf-8"?>
<!-- Generator: Adobe Illustrator 17.0.0, SVG Export Plug-In . SVG Version: 6.00 Build 0)  -->
<!DOCTYPE svg PUBLIC "-//W3C//DTD SVG 1.1//EN" "http://www.w3.org/Graphics/SVG/1.1/DTD/svg11.dtd">
<svg version="1.1" id="Layer_1" xmlns="http://www.w3.org/2000/svg" xmlns:xlink="http://www.w3.org/1999/xlink" x="0px" y="0px"
	 viewBox="0 0 750 287" enable-background="new 0 0 750 287" xml:space="preserve">
<path d="M299.135,260.34l-2.433-14.412c-0.694-4.154-1.581-10.646-2.257-15.143h-0.264c-0.711,4.53-1.704,11.207-2.433,15.178
	l-2.618,14.377H299.135z M287.823,269.731l-3.162,15.994H272.98l14.571-66.541h14.316l13.236,66.541h-11.742l-3.092-15.994H287.823z
	"/>
<path d="M341.69,256.002c0-0.887,0-1.924-0.176-2.873c-0.465-3.285-2.213-6.244-5.024-6.244c-4.822,0-6.596,6.947-6.596,15.072
	c0,9.336,2.529,14.649,6.429,14.649c1.783,0,3.838-0.914,4.954-4.832c0.272-0.78,0.413-1.825,0.413-3.047V256.002z M353.679,217.418
	v54.508c0,4.32,0.22,9.635,0.396,13.789H343.72l-0.676-5.543h-0.246c-1.739,3.418-5.524,6.324-10.048,6.324
	c-9.916,0-14.834-10.943-14.834-24.761c0-16.836,7.333-25.022,15.326-25.022c4.181,0,6.886,2.047,8.248,5.008h0.202v-24.303
	L353.679,217.418L353.679,217.418z"/>
<path d="M378.649,277.301c4.576,0,5.709-8.625,5.709-15.766c0-6.789-1.133-15.636-5.91-15.636c-5.06,0-6.123,8.847-6.123,15.636
	c0,8.194,1.335,15.766,6.218,15.766H378.649z M378.421,286.497c-11.049,0-17.979-8.871-17.979-24.75
	c0-17.33,8.897-25.033,18.26-25.033c10.9,0,17.733,9.304,17.733,24.752c0,19.851-10.706,25.031-17.917,25.031H378.421z"/>
<path d="M415.126,268.5c0,1.203,0.221,2.328,0.476,3.082c1.202,4.032,3.241,5.024,4.874,5.024c4.638,0,6.509-5.877,6.509-15.274
	c0-8.556-1.978-14.447-6.562-14.447c-2.274,0-4.189,2.469-4.849,5.121c-0.229,0.834-0.448,2.133-0.448,3.029V268.5z
	 M403.135,217.418h11.99v25.119h0.192c2.362-3.707,5.507-5.824,10.074-5.824c9.038,0,13.579,10.276,13.579,23.715
	c0,16.979-6.772,26.068-15.547,26.068c-4.182,0-6.965-1.854-9.478-6.552h-0.251l-0.667,5.771h-10.294
	c0.176-3.996,0.402-9.469,0.402-13.789V217.418L403.135,217.418z"/>
<path d="M467.702,257.012c0.062-6.771-1.924-11.516-5.727-11.516c-4.34,0-6.184,6.352-6.315,11.516H467.702z M455.616,265.489
	c0.141,8.721,4.727,11.559,10.417,11.559c3.608,0,6.701-0.801,8.985-1.659l1.615,8.625c-3.18,1.368-8.09,2.229-12.797,2.229
	c-12.867,0-19.895-8.793-19.895-23.811c0-16.117,8.15-25.797,18.796-25.797c10.285,0,15.985,8.555,15.985,22.52
	c0,3.197-0.133,4.998-0.344,6.402L455.616,265.489z"/>
<polygon fill="#ED1C24" points="402.04,0 478.733,0 478.733,183.612 "/>
<polygon fill="#ED1C24" points="348.005,0 271.267,0 271.267,183.612 "/>
<polygon fill="#ED1C24" points="375.031,67.656 423.891,183.602 391.878,183.602 377.261,146.67 341.488,146.67 "/>
</svg>
