<?xml version="1.0" encoding="utf-8"?>
<!-- Generator: Adobe Illustrator 17.0.0, SVG Export Plug-In . SVG Version: 6.00 Build 0)  -->
<!DOCTYPE svg PUBLIC "-//W3C//DTD SVG 1.1//EN" "http://www.w3.org/Graphics/SVG/1.1/DTD/svg11.dtd">
<svg version="1.1" id="Layer_1_copy" xmlns="http://www.w3.org/2000/svg" xmlns:xlink="http://www.w3.org/1999/xlink" x="0px"
	 y="0px" viewBox="0 0 750 392" enable-background="new 0 0 750 392" xml:space="preserve">
<rect display="none" fill="#8EC642" width="750" height="500"/>
<g>
	<rect y="142" fill="#8DCF3F" width="36.72" height="71.28"/>
</g>
<g>
	<rect y="213.28" fill="#679530" width="36.72" height="36.72"/>
</g>
<g>
	<path d="M158,146v100H4V146H158 M162,142H0v108h162V142L162,142z"/>
</g>
<g>
	<rect x="392" y="142" fill="#8DCF3F" width="162" height="17.28"/>
</g>
<g>
	<rect x="392" y="232.72" fill="#8DCF3F" width="162" height="17.28"/>
</g>
<g>
	<path d="M550,146v100H396V146H550 M554,142H392v108h162V142L554,142z"/>
</g>
<g>
	<rect x="588" fill="#8DCF3F" width="36.72" height="108"/>
</g>
<g>
	<path d="M746,4v100H592V4H746 M750,0H588v108h162V0L750,0z"/>
</g>
<g>
	<rect x="392" fill="#8DCF3F" width="36.72" height="71.28"/>
</g>
<g>
	<path d="M550,4v100H396V4H550 M554,0H392v108h162V0L554,0z"/>
</g>
<g>
	<rect x="235.96" y="27" fill="#8DCF3F" width="82.08" height="54"/>
</g>
<g>
	<path d="M354,4v100H200V4H354 M358,0H196v108h162V0L358,0z"/>
</g>
<g>
	<path d="M158,4v100H4V4H158 M162,0H0v108h162V0L162,0z"/>
</g>
<g>
	<rect x="196" y="142" fill="#8DCF3F" width="36.72" height="108"/>
</g>
<g>
	<rect x="321.28" y="142" fill="#8DCF3F" width="36.72" height="108"/>
</g>
<g>
	<path d="M354,146v100H200V146H354 M358,142H196v108h162V142L358,142z"/>
</g>
<g>
	<rect x="588" y="142" fill="#8DCF3F" width="36.72" height="71.28"/>
</g>
<g>
	<rect x="713.28" y="142" fill="#8DCF3F" width="36.72" height="71.28"/>
</g>
<g>
	<rect x="588" y="213.28" fill="#679530" width="36.72" height="36.72"/>
</g>
<g>
	<rect x="713.28" y="213.28" fill="#679530" width="36.72" height="36.72"/>
</g>
<g>
	<path d="M746,146v100H592V146H746 M750,142H588v108h162V142L750,142z"/>
</g>
<g>
	<rect y="284" fill="#8DCF3F" width="162" height="17.28"/>
</g>
<g>
	<rect y="301.28" fill="#679530" width="36.72" height="90.72"/>
</g>
<g>
	<path d="M158,288v100H4V288H158 M162,284H0v108h162V284L162,284z"/>
</g>
<g>
	<rect x="196" y="284" fill="#8DCF3F" width="162" height="17.28"/>
</g>
<g>
	<rect x="196" y="374.72" fill="#8DCF3F" width="162" height="17.28"/>
</g>
<g>
	<rect x="196" y="301.28" fill="#679530" width="36.72" height="73.44"/>
</g>
<g>
	<path d="M354,288v100H200V288H354 M358,284H196v108h162V284L358,284z"/>
</g>
<g>
	<rect x="392" y="284" fill="#8DCF3F" width="162" height="17.28"/>
</g>
<g>
	<rect x="392" y="301.28" fill="#679530" width="36.72" height="90.72"/>
</g>
<g>
	<rect x="517.28" y="301.28" fill="#679530" width="36.72" height="90.72"/>
</g>
<g>
	<path d="M550,288v100H396V288H550 M554,284H392v108h162V284L554,284z"/>
</g>
<g>
	<rect x="588" y="301.28" fill="#679530" width="36.72" height="73.44"/>
</g>
<g>
	<rect x="713.28" y="301.28" fill="#679530" width="36.72" height="73.44"/>
</g>
<g>
	<rect x="588" y="284" fill="#8DCF3F" width="162" height="17.28"/>
</g>
<g>
	<rect x="588" y="374.72" fill="#8DCF3F" width="162" height="17.28"/>
</g>
<g>
	<path d="M746,288v100H592V288H746 M750,284H588v108h162V284L750,284z"/>
</g>
</svg>
