<?xml version="1.0" encoding="utf-8"?>
<!-- Generator: Adobe Illustrator 16.1.0, SVG Export Plug-In . SVG Version: 6.00 Build 0)  -->
<!DOCTYPE svg PUBLIC "-//W3C//DTD SVG 1.1//EN" "http://www.w3.org/Graphics/SVG/1.1/DTD/svg11.dtd">
<svg version="1.1" id="Layer_1" xmlns="http://www.w3.org/2000/svg" xmlns:xlink="http://www.w3.org/1999/xlink" x="0px" y="0px"
	 viewBox="150 10 450 450" enable-background="new 150 10 450 450" xml:space="preserve">
<g>
	<path fill="#8DCF3F" d="M382.762,74.563l3.19,0.05c65.253,0.956,102.664,55.628,101.522,133.614
		c-1.652,112.997-64.841,188.485-152.376,187.208l-42.979-0.633c-18.487-41.656-30.44-95.95-29.576-154.844
		C264.06,136.51,306.372,73.449,382.762,74.563z"/>
	<g>
		<path fill="#FFFFFF" d="M297.266,293.358c-1.07-0.665-1.93-1.863-1.93-3.452c0-2.257,1.72-3.982,3.982-3.982
			c0.731,0,1.456,0.203,1.982,0.53c3.389,2.124,6.774,3.182,9.634,3.182c2.913,0,4.241-1.058,4.241-2.655v-0.125
			c0-2.197-3.454-2.925-7.364-4.122c-4.98-1.464-10.621-3.789-10.621-10.683v-0.136c0-7.235,5.842-11.287,13.008-11.287
			c3.719,0,7.57,0.996,11.017,2.724c1.456,0.729,2.39,2.053,2.39,3.781c0,2.257-1.79,3.982-4.044,3.982
			c-0.738,0-1.208-0.135-1.863-0.467c-2.851-1.39-5.575-2.257-7.703-2.257c-2.453,0-3.713,1.063-3.713,2.46v0.128
			c0,1.99,3.389,2.923,7.236,4.255c4.98,1.655,10.753,4.051,10.753,10.548v0.136c0,7.898-5.908,11.485-13.604,11.485
			C306.285,297.402,301.582,296.143,297.266,293.358z"/>
		<path fill="#FFFFFF" d="M330.735,252.667c0-2.917,2.466-4.701,5.649-4.701c3.185,0,5.637,1.791,5.637,4.701v0.14
			c0,2.922-2.453,4.775-5.637,4.775c-3.183,0-5.649-1.854-5.649-4.775V252.667z M331.338,265.813c0-2.786,2.255-5.044,5.046-5.044
			c2.786,0,5.047,2.259,5.047,5.044v26.284c0,2.787-2.261,5.044-5.047,5.044c-2.792,0-5.046-2.257-5.046-5.044V265.813z"/>
		<path fill="#FFFFFF" d="M351.704,286.653v-16.853h-0.327c-2.389,0-4.313-1.927-4.313-4.317c0-2.384,1.925-4.311,4.313-4.311h0.327
			v-4.44c0-2.794,2.26-5.048,5.047-5.048c2.791,0,5.046,2.254,5.046,5.048v4.44h4.444c2.387,0,4.314,1.928,4.314,4.311
			c0,2.392-1.931,4.317-4.314,4.317h-4.444v15.198c0,2.327,0.996,3.452,3.254,3.452c0.339,0,0.995-0.068,1.2-0.068
			c2.253,0,4.179,1.855,4.179,4.179c0,1.796-1.194,3.253-2.587,3.78c-1.863,0.738-3.582,0.996-5.772,0.996
			C355.89,297.344,351.704,294.885,351.704,286.653z"/>
		<path fill="#FFFFFF" d="M392.742,297.534c-10.684,0-18.58-7.5-18.58-18.386v-0.129c0-10.154,7.236-18.521,17.591-18.521
			c11.876,0,17.122,9.755,17.122,17.126c0,2.923-2.065,4.852-4.705,4.852h-19.988c1.003,4.569,4.187,6.964,8.702,6.964
			c2.785,0,5.115-0.861,7.164-2.389c0.731-0.525,1.393-0.796,2.459-0.796c2.245,0,3.916,1.728,3.916,3.983
			c0,1.328-0.597,2.323-1.335,2.983C401.968,295.879,397.917,297.534,392.742,297.534z M399.243,276.165
			c-0.595-4.508-3.252-7.571-7.491-7.571c-4.188,0-6.911,2.984-7.704,7.571H399.243z"/>
		<path fill="#FFFFFF" d="M298.658,309.827c0-2.794,2.255-5.048,5.047-5.048c2.784,0,5.046,2.254,5.046,5.048v39.153
			c0,2.791-2.262,5.048-5.046,5.048c-2.792,0-5.047-2.257-5.047-5.048V309.827z"/>
		<path fill="#FFFFFF" d="M332.569,354.427c-10.685,0-18.58-7.499-18.58-18.382v-0.137c0-10.151,7.235-18.518,17.584-18.518
			c11.878,0,17.128,9.755,17.128,17.126c0,2.923-2.053,4.844-4.707,4.844h-19.977c0.994,4.578,4.171,6.972,8.691,6.972
			c2.792,0,5.117-0.861,7.166-2.385c0.732-0.528,1.387-0.794,2.453-0.794c2.262,0,3.915,1.723,3.915,3.984
			c0,1.321-0.596,2.316-1.32,2.979C341.797,352.764,337.752,354.427,332.569,354.427z M339.073,333.06
			c-0.596-4.511-3.254-7.569-7.5-7.569c-4.179,0-6.895,2.987-7.701,7.569H339.073z"/>
		<path fill="#FFFFFF" d="M351.15,343.412v-0.137c0-7.757,5.908-11.349,14.336-11.349c3.588,0,6.176,0.604,8.699,1.467v-0.599
			c0-4.183-2.588-6.503-7.628-6.503c-2.791,0-5.045,0.394-6.97,0.996c-0.603,0.197-0.997,0.263-1.464,0.263
			c-2.324,0-4.186-1.794-4.186-4.118c0-1.796,1.13-3.319,2.722-3.916c3.185-1.201,6.639-1.861,11.353-1.861
			c5.508,0,9.485,1.465,12.016,3.98c2.654,2.655,3.843,6.574,3.843,11.344v16.191c0,2.724-2.193,4.849-4.911,4.849
			c-2.92,0-4.849-2.061-4.849-4.182v-0.067c-2.446,2.72-5.841,4.512-10.747,4.512C356.659,354.298,351.15,350.443,351.15,343.412z
			 M374.322,341.088v-1.803c-1.729-0.791-3.982-1.321-6.436-1.321c-4.314,0-6.979,1.723-6.979,4.912v0.128
			c0,2.721,2.262,4.32,5.508,4.32C371.13,347.327,374.322,344.74,374.322,341.088z"/>
		<path fill="#FFFFFF" d="M391.568,326.686h-0.393c-2.324,0-4.181-1.792-4.181-4.112c0-2.327,1.856-4.184,4.181-4.184h0.389v-2.26
			c0-3.92,1.003-6.768,2.859-8.625c1.849-1.852,4.569-2.79,8.167-2.79c1.592,0,2.984,0.07,4.112,0.262
			c1.728,0.268,3.462,1.798,3.462,4.052c0,2.256-1.862,4.184-4.127,4.184h-0.853c-2.33,0-3.658,1.191-3.658,3.846v1.39h4.383
			c2.318,0,4.18,1.799,4.18,4.117c0,2.325-1.861,4.121-4.18,4.121h-4.246v22.302c0,2.791-2.257,5.047-5.048,5.047
			c-2.79,0-5.047-2.256-5.047-5.047L391.568,326.686L391.568,326.686z"/>
	</g>
</g>
</svg>
