<?xml version="1.0" encoding="utf-8"?>
<!-- Generator: Adobe Illustrator 17.0.0, SVG Export Plug-In . SVG Version: 6.00 Build 0)  -->
<!DOCTYPE svg PUBLIC "-//W3C//DTD SVG 1.1//EN" "http://www.w3.org/Graphics/SVG/1.1/DTD/svg11.dtd">
<svg version="1.1" id="Layer_1" xmlns="http://www.w3.org/2000/svg" xmlns:xlink="http://www.w3.org/1999/xlink" x="0px" y="0px"
	 viewBox="0 0 750 450" enable-background="new 0 0 750 450" xml:space="preserve">
<g>
	<path fill="#8DCF3F" d="M381.791,84.622l2.792,0.044c57.094,0.836,89.828,48.673,88.829,116.908
		c-1.446,98.87-56.735,164.92-133.325,163.803l-37.605-0.554c-16.176-36.448-26.634-83.954-25.878-135.484
		C277.93,138.824,314.952,83.647,381.791,84.622z"/>
	<g>
		<path fill="#FFFFFF" d="M306.985,276.062c-0.937-0.581-1.689-1.63-1.689-3.02c0-1.974,1.505-3.485,3.484-3.485
			c0.64,0,1.274,0.178,1.735,0.465c2.965,1.858,5.927,2.783,8.429,2.783c2.549,0,3.711-0.925,3.711-2.323v-0.11
			c0-1.923-3.022-2.558-6.443-3.606c-4.358-1.28-9.293-3.316-9.293-9.348V257.3c0-6.331,5.111-9.876,11.381-9.876
			c3.254,0,6.623,0.872,9.64,2.383c1.274,0.638,2.091,1.797,2.091,3.308c0,1.975-1.566,3.485-3.539,3.485
			c-0.646,0-1.057-0.118-1.63-0.408c-2.494-1.216-4.877-1.975-6.739-1.975c-2.146,0-3.249,0.931-3.249,2.152v0.112
			c0,1.742,2.965,2.558,6.331,3.723c4.358,1.449,9.409,3.544,9.409,9.229v0.119c0,6.911-5.169,10.05-11.903,10.05
			C314.876,279.601,310.761,278.498,306.985,276.062z"/>
		<path fill="#FFFFFF" d="M336.27,240.458c0-2.552,2.157-4.113,4.943-4.113s4.932,1.567,4.932,4.113v0.122
			c0,2.558-2.146,4.179-4.932,4.179c-2.786,0-4.943-1.621-4.943-4.179V240.458z M336.797,251.961c0-2.437,1.973-4.413,4.416-4.413
			c2.437,0,4.416,1.977,4.416,4.413v22.998c0,2.439-1.979,4.413-4.416,4.413c-2.443,0-4.416-1.974-4.416-4.413V251.961z"/>
		<path fill="#FFFFFF" d="M354.616,270.196v-14.747h-0.286c-2.091,0-3.774-1.684-3.774-3.776c0-2.086,1.684-3.772,3.774-3.772h0.286
			v-3.886c0-2.444,1.978-4.416,4.416-4.416c2.442,0,4.415,1.972,4.415,4.416v3.886h3.889c2.088,0,3.775,1.687,3.775,3.772
			c0,2.093-1.69,3.776-3.775,3.776h-3.889v13.298c0,2.036,0.872,3.021,2.848,3.021c0.296,0,0.87-0.06,1.049-0.06
			c1.972,0,3.657,1.624,3.657,3.657c0,1.571-1.045,2.846-2.264,3.308c-1.63,0.646-3.134,0.871-5.05,0.871
			C358.279,279.55,354.616,277.398,354.616,270.196z"/>
		<path fill="#FFFFFF" d="M390.523,279.716c-9.348,0-16.256-6.562-16.256-16.087v-0.112c0-8.886,6.331-16.206,15.391-16.206
			c10.391,0,14.981,8.535,14.981,14.984c0,2.558-1.806,4.244-4.117,4.244h-17.489c0.878,3.998,3.664,6.094,7.614,6.094
			c2.437,0,4.476-0.753,6.269-2.09c0.64-0.459,1.218-0.696,2.151-0.696c1.965,0,3.427,1.512,3.427,3.485
			c0,1.162-0.522,2.033-1.168,2.611C398.596,278.267,395.051,279.716,390.523,279.716z M396.213,261.018
			c-0.522-3.944-2.846-6.624-6.556-6.624c-3.664,0-6.047,2.611-6.74,6.624H396.213z"/>
		<path fill="#FFFFFF" d="M308.203,290.472c0-2.445,1.973-4.416,4.416-4.416c2.436,0,4.415,1.971,4.415,4.416v34.258
			c0,2.442-1.979,4.416-4.415,4.416c-2.443,0-4.416-1.974-4.416-4.416V290.472z"/>
		<path fill="#FFFFFF" d="M337.874,329.495c-9.348,0-16.257-6.562-16.257-16.084v-0.119c0-8.882,6.331-16.202,15.386-16.202
			c10.393,0,14.986,8.535,14.986,14.984c0,2.558-1.796,4.238-4.118,4.238h-17.48c0.87,4.007,3.65,6.1,7.605,6.1
			c2.443,0,4.477-0.753,6.27-2.087c0.64-0.462,1.214-0.693,2.146-0.693c1.979,0,3.426,1.506,3.426,3.485
			c0,1.156-0.521,2.027-1.156,2.608C345.948,328.04,342.409,329.495,337.874,329.495z M343.565,310.8
			c-0.521-3.947-2.847-6.624-6.562-6.624c-3.657,0-6.033,2.614-6.739,6.624H343.565z"/>
		<path fill="#FFFFFF" d="M354.132,319.857v-0.119c0-6.787,5.169-9.929,12.544-9.929c3.14,0,5.404,0.528,7.611,1.283v-0.524
			c0-3.66-2.264-5.69-6.674-5.69c-2.442,0-4.415,0.344-6.099,0.872c-0.528,0.172-0.872,0.23-1.281,0.23
			c-2.034,0-3.663-1.57-3.663-3.604c0-1.571,0.989-2.904,2.382-3.426c2.786-1.05,5.809-1.628,9.933-1.628
			c4.82,0,8.299,1.281,10.513,3.482c2.323,2.324,3.363,5.753,3.363,9.926v14.167c0,2.383-1.92,4.241-4.297,4.241
			c-2.555,0-4.243-1.802-4.243-3.657v-0.06c-2.14,2.38-5.111,3.947-9.403,3.947C358.952,329.383,354.132,326.01,354.132,319.857z
			 M374.406,317.824v-1.577c-1.512-0.693-3.484-1.156-5.63-1.156c-3.775,0-6.106,1.506-6.106,4.298v0.112
			c0,2.38,1.979,3.779,4.819,3.779C371.614,323.283,374.406,321.019,374.406,317.824z"/>
		<path fill="#FFFFFF" d="M389.497,305.222h-0.344c-2.033,0-3.658-1.567-3.658-3.598c0-2.036,1.625-3.66,3.658-3.66h0.34v-1.977
			c0-3.43,0.878-5.922,2.502-7.546c1.618-1.621,3.998-2.442,7.146-2.442c1.393,0,2.611,0.062,3.598,0.229
			c1.512,0.234,3.029,1.573,3.029,3.545c0,1.974-1.63,3.66-3.61,3.66h-0.746c-2.039,0-3.201,1.043-3.201,3.366v1.216h3.835
			c2.027,0,3.657,1.573,3.657,3.601c0,2.036-1.63,3.606-3.657,3.606h-3.716v19.514c0,2.442-1.975,4.416-4.416,4.416
			c-2.442,0-4.416-1.974-4.416-4.416v-19.514H389.497z"/>
	</g>
</g>
</svg>
