<?xml version="1.0" encoding="utf-8"?>
<!-- Generator: Adobe Illustrator 16.1.0, SVG Export Plug-In . SVG Version: 6.00 Build 0)  -->
<!DOCTYPE svg PUBLIC "-//W3C//DTD SVG 1.1//EN" "http://www.w3.org/Graphics/SVG/1.1/DTD/svg11.dtd">
<svg version="1.1" id="Layer_1" xmlns="http://www.w3.org/2000/svg" xmlns:xlink="http://www.w3.org/1999/xlink" x="0px" y="0px"
	 width="750px" height="300px" viewBox="0 0 750 300" enable-background="new 0 0 750 300" xml:space="preserve">
<g id="E5zzBq_1_">
</g>
<g>
	<path d="M141.036,211.32h-18.695V104.197h-19.817V86.811h58.703v17.387h-20.19V211.32z"/>
	<path d="M222.171,104.197h-32.155v33.838h22.994v17.387h-22.994v38.325h32.155v17.573H171.32V86.811h50.851V104.197z"/>
	<path d="M291.901,86.811v83.941c0,18.882-1.496,25.426-7.479,32.717c-5.234,6.169-13.086,9.721-21.873,9.721
		s-17.013-3.552-21.873-9.721c-5.982-7.665-7.291-14.021-7.291-32.717V86.811h18.695v82.072c0,22.434,1.682,26.921,10.469,26.921
		s10.656-4.487,10.656-26.921V86.811H291.901z"/>
	<path d="M369.11,211.32h-19.629l-14.583-40.194l-13.834,40.194h-19.256l23.369-63.938l-22.435-60.572h19.63l12.899,36.643
		l12.152-36.643h19.442l-21.873,60.572L369.11,211.32z"/>
	<path fill="#CC0000" d="M379.205,86.811h26.547c21.312,0,31.408,11.218,31.408,35.147v54.028c0,24.117-10.096,35.334-31.408,35.334
		h-26.547V86.811z M403.696,193.934c11.03,0,14.769-5.421,14.769-21.125V125.51c0-15.891-3.738-21.312-14.769-21.312H397.9v89.736
		H403.696z"/>
	<path fill="#CC0000" d="M500.537,104.197h-32.155v33.838h22.995v17.387h-22.995v38.325h32.155v17.573h-50.851V86.811h50.851
		V104.197z"/>
	<path fill="#CC0000" d="M570.268,86.811v83.941c0,18.882-1.496,25.426-7.479,32.717c-5.234,6.169-13.086,9.721-21.873,9.721
		s-17.012-3.552-21.873-9.721c-5.982-7.665-7.291-14.021-7.291-32.717V86.811h18.695v82.072c0,22.434,1.682,26.921,10.469,26.921
		s10.656-4.487,10.656-26.921V86.811H570.268z"/>
	<path fill="#CC0000" d="M647.477,211.32h-19.629l-14.582-40.194l-13.835,40.194h-19.256l23.369-63.938l-22.435-60.572h19.631
		l12.898,36.643l12.152-36.643h19.443l-21.874,60.572L647.477,211.32z"/>
</g>
<g>
</g>
<g>
</g>
<g>
</g>
<g>
</g>
<g>
</g>
<g>
</g>
<g>
</g>
<g>
</g>
<g>
</g>
<g>
</g>
<g>
</g>
<g>
</g>
<g>
</g>
<g>
</g>
<g>
</g>
</svg>
